<svg version="1" xmlns="http://www.w3.org/2000/svg" width="1333.333" height="1333.333" viewBox="0 0 1000.000000 1000.000000"><path d="M285 153.7c-6.9 1.8-17 9-21.1 15-5.7 8.2-7.1 13.5-7.5 27.2-.2 6.8-.5 12.6-.7 12.7-.1.2-8.6.4-18.7.5-13.8.1-20.4.6-26.2 2-22.4 5.3-41.4 20-52.2 40.4-3.4 6.3-7.3 17.9-8.2 24.6-.4 3-.8 109.1-.9 235.9 0 174.9.2 232.2 1.1 237.5 5.3 30.8 26.9 54.7 57.9 64.1 5.7 1.8 18.7 1.9 287.5 2.1 193 .2 283.5 0 288-.8 31-5 56.6-28.7 64.1-59.5l2.2-8.9.1-231.5c.1-233.6.1-238.9-3.2-249.5-7.2-22.8-23.3-40.8-45.2-50.1-11.6-5-20.4-6.4-40.5-6.4H744v-2.8c-.2-15.5-.9-23.2-2.9-28.4-4-10.4-10.9-17.5-21.8-22.5-7.8-3.6-20-4-28.4-1-13.5 4.8-23.4 16.3-26.5 30.8-.3 1.3-.5 7.2-.6 13.1V209H540l-.1-10.8c-.1-5.9-.3-11.6-.4-12.7-.4-4.1-2.8-10.1-6-15-13.8-21.4-43.5-24.6-61.5-6.5-8.7 8.6-12 18.3-12 34.7V209H336.3l-.1-10.8c-.1-12.5-1.3-18.6-4.8-25.1-4.6-8.2-13.5-15.8-22.4-19.1-5.1-1.8-17.6-2-24-.3zm16.2 34.3c1.7 2 1.8 5 1.8 38 0 32.7-.1 35.8-1.7 37.3-3.1 2.7-6.7 3-9.4.9l-2.4-2v-73.4l2.3-1.8c2.8-2.3 7.1-1.9 9.4 1zm202.9-1.1l2.4 1.9.2 36.2.1 36.3-2.3 2.3c-3 3-6 3-9 0l-2.3-2.3v-35.4c0-20 .5-36.2 1-37.2.9-1.7 4-3.5 6.4-3.6.7-.1 2.2.8 3.5 1.8zm202.2-.7c1.2.6 2.7 1.7 3.2 2.5.7.9 1 14.6 1 37.4v36.1l-2.4 1.9c-3.1 2.5-5.9 2.4-8.8-.3l-2.3-2.1v-35.4c0-23.2.4-36.1 1.1-37.4.6-1.1 2-2.4 3.2-2.9 2.9-1.1 2.5-1.2 5 .2zm-450.7 57.3c.3.7.7 6.3.8 12.6.4 12 1 14.8 4.5 21.7 9.5 18.6 34 26.7 52.6 17.2 8.1-4.1 14.9-10.9 18.5-18.5 3.4-7.2 3.9-10.1 4.1-23.8l.2-10.4 61.6.1 61.6.1.6 13c.9 17.7 3.7 24.7 13.6 33.5 7.4 6.6 14.1 9.3 24.5 9.6 17.3.6 30.6-7.5 38-23.1 3-6.6 3.7-10.8 3.8-24.6v-8.6h123.6l.1 10.2c.2 17.2 3.3 26.3 11.9 34.9 16.9 16.9 45.9 14.9 59.8-4.1 6-8.1 7.8-14.2 8.2-27.3.2-6.3.3-12 .3-12.7.1-.9 4.8-1.1 18.4-.9 15.4.2 19.1.6 23.9 2.3 10.4 3.8 20.1 12 25.1 21.2 5.1 9.5 5.7 14.2 5.7 42.3V334H182.9l.1-27c.1-24 .3-27.7 2.1-32.7 5.4-15.8 17.8-27.3 33.2-30.8 7.3-1.6 36.7-1.7 37.3 0zM817 374.7c.3 91.4-.1 367.4-.6 370.5-.3 2.4-2.1 7.5-4 11.5-6.1 12.8-18.7 22.6-32.4 25.1-7.7 1.4-553.6 1.5-560.5 0-16.1-3.3-29.6-15.7-34.5-31.7-2-6.2-2-10.3-2-194.7V367h634v7.7z"/><path d="M567.5 590.7c-21.4 50-39.9 93-41.1 95.8-1.2 2.7-3.7 8.4-5.4 12.5-1.7 4.1-4 9.4-5.1 11.7-1 2.4-1.9 4.5-1.9 4.8 0 .2-1.3 3.4-3 6.9-1.6 3.6-4.1 9.4-5.5 12.8-2.2 5.4-3.5 8.4-5.3 12-.2.5 14.8.8 33.2.8h33.5l.6-2.3c.3-1.2 1-3.1 1.5-4.2s3.7-9 7-17.5 6.6-16.5 7.2-17.7l1.1-2.1 53.4.1 53.5.2 8.3 21.5 8.4 21.5 34.6.3 34.5.2-1.5-3.7c-.9-2.1-3.2-7.6-5.1-12.3-1.9-4.7-4.1-9.9-4.8-11.5-.8-1.7-3.7-8.6-6.6-15.5-2.9-6.9-7.6-18.1-10.5-25-2.9-6.9-9.4-22.4-14.4-34.5-5.1-12.1-9.6-22.9-10.1-24-.7-1.7-7.1-17.1-9.3-22.5-.3-.8-9.8-23.3-21-50l-20.4-48.5-33.5-.3-33.4-.2-38.9 90.7zm77.5-6.2c3.4 8.8 8.6 22.5 11.7 30.5 3 8 7.5 19.4 9.9 25.5 2.3 6 4.5 11.7 4.9 12.6.5 1.3-3.1 1.5-33.5 1.5l-34.1-.1.6-2.4c.6-2.2 15.6-40.9 18.9-48.6.7-1.7 4.2-10.5 7.7-19.7s6.7-16.4 7.1-16c.4.4 3.4 7.9 6.8 16.7z"/></svg>