<svg version="1" xmlns="http://www.w3.org/2000/svg" width="1333.333" height="1333.333" viewBox="0 0 1000.000000 1000.000000"><path d="M467 15.1c-81.3 5.4-161.7 32.1-230.3 76.5C62.7 204.4-20.8 413.1 27.6 614c40.3 167.3 168 302.3 332.4 351.4 136.8 40.9 284.4 20 403.3-57 148.3-96.1 233-263.8 221.7-438.9-7.7-119.1-57.3-228.8-141.5-313C743.9 56.9 607.9 5.8 467 15.1zm73.4 127.3c28.6 4.1 46.4 8.2 70.1 16.1 45.2 15 87 38.6 122.8 69.4 4.9 4.2 9.5 8 10.2 8.5.9.7 6.8-3.1 20.1-13 29.8-22.1 46-33.4 47.8-33.4 3.3 0-10.4 120.2-17 149-1 4.6-2.2 7.4-3.4 8-5.9 3.1-160-16.1-160-20 0-1.2 29.9-25.6 55.9-45.5l10.4-7.9-5.3-4.8c-19.2-17.2-55.3-38.5-85.2-50.2-50.7-19.9-110.1-25.9-164.8-16.6-112.9 19.2-205.9 99.4-242.3 209-6.3 18.9-10.8 40.1-13.8 64.5-1.8 14.3-1.5 52.1.4 68 7.2 58.2 29.6 112 65.8 157.6 10.5 13.3 35.5 38.3 48.8 48.8 60.2 47.7 136.4 71.9 211.1 67.1 42.2-2.7 79.1-12.1 115.5-29.4 85.7-40.8 148.1-118.8 169.1-211.1 4.6-20 6.5-35.9 7.1-58.5.6-24 .1-30.5-5.3-65l-3.6-22.5 3.4-2.9c10.4-8.9 42-27.6 46.8-27.6 3.1 0 6.4 11.3 10.4 35.5 5.2 32 6.1 42.3 6.1 74 0 30.3-.4 35.8-4.6 61C843.3 652 799.8 729.4 736 785.1c-78.9 68.9-185.2 101.1-289.1 87.4-67.4-8.9-128.8-35-182.4-77.6-16.4-13-44.1-40.6-57.2-57.1-24-30-44-65.1-57.1-99.8-35.4-94.3-31.2-197.3 11.8-288.5 33-70 89.8-129.5 158.9-166.4 45-24 89.9-37.2 144.6-42.5 10.3-1 64.5.3 74.9 1.8zm-12.7 156.1c14.4 2 15.8 3 22.3 16 18.5 36.7 70.3 155.6 106.9 245.2 21.8 53.3 35.6 91.1 34.9 95.7-.7 4.8-18.9 6.8-62.9 6.8h-33.6l-88.4-33.7c-48.6-18.6-88.9-33.9-89.4-34.2-.6-.2-1.7 1.3-2.4 3.4-.7 2.1-6.2 16.2-12.3 31.4l-11 27.6-3.7 1.1c-15.1 4.5-74 4.6-87.8.1-3.9-1.2-4.1-3.1-1.7-11.7 6.2-21.7 40.2-104.3 80.7-195.7 32.6-73.9 65.3-143.1 69.5-147.3 6-6 50.5-8.7 78.9-4.7z"/><path d="M493.5 394.1c-.2.8-11 30-23.9 64.8-13 34.9-23.4 63.6-23.3 63.7.6.5 113 40.4 113.2 40.2.3-.4-64-168.6-64.8-169.4-.4-.4-.9-.1-1.2.7z"/></svg>