<svg version="1" xmlns="http://www.w3.org/2000/svg" width="346.667" height="346.667" viewBox="0 0 260.000000 260.000000"><path d="M99.5 37.7c-2 4.9-4.5 10.6-5.5 12.8-1 2.2-3 6.9-4.5 10.5-1.4 3.6-3.2 7.9-4 9.5-.7 1.7-2.3 5.3-3.5 8-1.2 2.7-2.7 6.3-3.4 8-.7 1.6-1.9 4.3-2.6 6-2.8 6.6-20.2 47.2-21.5 50-.7 1.6-7.5 17.4-15 35s-14.4 33.8-15.4 36c-2.7 6-7.1 16.6-7.1 17.1 0 .2 12.1.4 26.9.4h26.9l1.2-3.2c.7-1.8 1.9-4.7 2.5-6.3.7-1.7 3.2-8 5.6-14 2.3-6.1 4.7-11.3 5.2-11.6.5-.4 20.3-.6 43.9-.5l43 .1 6.7 17.5 6.8 17.5 28.2.3 28.1.2-1.5-3.7c-.9-2.1-3.2-7.6-5.2-12.3-1.9-4.7-4.1-10-4.9-11.7-3.3-7.6-4.4-10.2-7.9-18.8-2-5-4.2-10.4-5-12-.7-1.7-3.6-8.6-6.5-15.5-2.8-6.9-5.8-13.8-6.6-15.4-.8-1.6-1.4-3.3-1.4-3.7 0-.5-1.1-3.2-2.4-6.1-1.3-2.9-4.7-10.9-7.6-17.8-2.9-6.9-5.8-13.9-6.5-15.5-1.7-3.8-21.7-51.7-25.2-60.5-1.5-3.6-3.1-7.1-3.6-7.8-.7-.9-7.5-1.2-27.7-1.2h-26.8l-3.7 8.7zM130 85.1c0 1 4.8 13.8 8 21.4.4 1.1 1.3 3.6 2 5.5s1.6 4.4 2.1 5.5c1.9 4.4 13.9 36 13.9 36.7 0 .4-12.4.8-27.5.8s-27.5-.2-27.5-.4c0-.5 6.8-18.3 8.5-22.1.7-1.7 4.1-10.2 7.5-19 9.7-25.2 11.4-29.5 12.3-29.5.4 0 .7.5.7 1.1z"/></svg>