<svg xmlns="http://www.w3.org/2000/svg" width="70" height="70" viewBox="0 0 70 70">
  <path d="M25.6515111,3 C28.5981172,3 30.9860907,5.38797353 30.9860907,8.33457956 C30.9860907,11.2811856 28.5981172,13.6691591 25.6515111,13.6691591 C22.7049051,13.6691591 20.3169316,11.2811856 20.3169316,8.33457956 C20.3169316,5.38797353 22.7049051,3 25.6515111,3 Z M18.0849783,22.6371689 C16.8268313,27.1464257 17.5087404,29.9118884 17.3225274,34.2749164 C16.922434,43.6883119 18.3038705,44.6545812 8.04956304,43.5150276 C4.34050612,43.0167934 3.58307982,48.6559024 7.29213675,49.1541109 C17.6621389,50.5079186 22.1610888,49.7353798 22.807845,38.7164699 C24.4862548,42.2519204 27.6391915,49.0710117 27.780138,52.8781127 C27.822916,54.0179884 27.870729,55.054731 27.870729,56.1996313 C27.870729,59.9338756 33.5777731,59.9338756 33.5777731,56.1971145 C33.5777731,56.1971145 33.4695703,52.7924968 33.4645393,52.6768021 C33.2405838,46.7055799 28.4595864,37.150787 25.7595078,31.8466127 L26.1394707,29.3982151 C28.3790253,30.830033 34.7379791,30.6010272 37.2090518,30.1078433 C40.7570639,28.9352433 38.9730086,23.540433 35.4249966,24.7128397 C35.4249966,24.7128397 35.1632987,24.7078074 30.9308137,24.7078074 C25.3999526,24.7078074 31.6278159,12.5263724 20.1788131,15.5958879 C15.3751663,16.8817346 11.291068,20.193204 8.24860808,27.4803561 C7.12129389,31.0585802 12.5615833,32.7721621 13.6863852,29.1965148 C14.7306646,25.8825332 16.2882908,23.9650684 18.0874198,22.6387671 L18.0849783,22.6371689 Z" transform="rotate(10 5.64 107.295)"/>
</svg>
