<svg xmlns="http://www.w3.org/2000/svg" width="70" height="70" viewBox="0 0 70 70">
  <path d="M25.6515111,3.42465868 C28.5981172,3.42465868 30.9860907,5.81263221 30.9860907,8.75923824 C30.9860907,11.7058443 28.5981172,14.0938178 25.6515111,14.0938178 C22.7049051,14.0938178 20.3169316,11.7058443 20.3169316,8.75923824 C20.3169316,5.81263221 22.7049051,3.42465868 25.6515111,3.42465868 Z M18.0849783,23.0618276 C16.8268313,27.5710843 17.5087404,30.3365471 17.3225274,34.6995751 C16.922434,44.1129706 18.3038705,45.0792399 8.04956304,43.9396863 C4.34050612,43.4414521 3.58307982,49.0805611 7.29213675,49.5787695 C17.6621389,50.9325773 22.1610888,50.1600385 22.807845,39.1411285 C24.4862548,42.6765791 27.6391915,49.4956704 27.780138,53.3027714 C27.822916,54.4426471 27.870729,55.4793897 27.870729,56.6242899 C27.870729,60.3585343 33.5777731,60.3585343 33.5777731,56.6217731 C33.5777731,56.6217731 33.4695703,53.2171555 33.4645393,53.1014608 C33.2405838,47.1302386 28.4595864,37.5754457 25.7595078,32.2712714 L26.1394707,29.8228738 C28.3790253,31.2546917 34.7379791,31.0256858 37.2090518,30.532502 C40.7570639,29.359902 38.9730086,23.9650916 35.4249966,25.1374984 C35.4249966,25.1374984 35.1632987,25.1324661 30.9308137,25.1324661 C25.3999526,25.1324661 31.6278159,12.9510311 20.1788131,16.0205465 C15.3751663,17.3063933 11.291068,20.6178626 8.24860808,27.9050148 C7.12129389,31.4832388 12.5615833,33.1968208 13.6863852,29.6211735 C14.7306646,26.3071919 16.2882908,24.3897271 18.0874198,23.0634258 L18.0849783,23.0618276 Z" transform="rotate(10 5.64 107.72)"/>
</svg>
