<svg xmlns="http://www.w3.org/2000/svg" width="21" height="21" viewBox="0 0 21 21">
  <g fill="none" fill-rule="evenodd">
    <path fill="#000" fill-rule="nonzero" d="M10.5 14.4444602C10.9558412 14.4444602 11.3253677 14.1422692 11.3253905 13.7695151L11.3253905 7.81672337C11.3253905 7.4439615 10.9558506 7.1417783 10.5 7.1417783 10.0441494 7.1417783 9.67460951 7.4439615 9.67460951 7.81672337L9.67460951 13.7695151C9.67463231 14.1422692 10.0441589 14.4444602 10.5 14.4444602L10.5 14.4444602zM10.4999918 14.9751598C10.0223724 14.9751598 9.6351935 15.362355 9.6351935 15.8399744 9.6351935 16.3175939 10.0223887 16.7047728 10.5000082 16.7047728 10.9776276 16.7047728 11.3648065 16.3175775 11.3648065 15.8399581 11.3648065 15.610596 11.2736937 15.3906279 11.1115088 15.228446 10.9493238 15.066264 10.7293539 14.9751598 10.4999918 14.9751598z"/>
    <path fill="#222" fill-rule="nonzero" d="M9.83451671,1.92259955 L0.617713334,17.8865713 C0.321939982,18.3988658 0.691656672,19.0392338 1.28320338,19.0392338 L19.7168101,19.0392338 C20.3083568,19.0392338 20.6780735,18.3988658 20.3823002,17.8865713 L11.1654968,1.92259955 C10.8697234,1.41030507 10.1302901,1.41030507 9.83451671,1.92259955 Z M10.4992246,3.84292352 L18.3854857,17.5017188 L2.61398808,17.5017188 L10.4992246,3.84292352 Z"/>
  </g>
</svg>
