<svg xmlns="http://www.w3.org/2000/svg" width="21" height="21" version="1.1" viewBox="0 0 21 21">
  <g fill="none" fill-rule="evenodd" stroke="none" stroke-width="1">
    <path fill="#000" fill-rule="nonzero" d="M10.5 13.9643823C10.9558411 13.9643823 11.3253677 13.6523669 11.3253905 13.2674942L11.3253905 7.1211722C11.3253905 6.73629152 10.9558506 6.42428409 10.5 6.42428409 10.0441494 6.42428409 9.6746095 6.73629152 9.6746095 7.1211722L9.6746095 13.2674942C9.67463229 13.6523669 10.0441589 13.9643823 10.5 13.9643823L10.5 13.9643823zM10.4999918 14.781426C10.0223724 14.781426 9.6351935 15.1686212 9.6351935 15.6462407 9.6351935 16.1238601 10.0223887 16.511039 10.5000082 16.511039 10.9776276 16.511039 11.3648065 16.1238438 11.3648065 15.6462243 11.3648065 15.4168623 11.2736937 15.1968941 11.1115088 15.0347122 10.9493238 14.8725302 10.7293539 14.781426 10.4999918 14.781426z"/>
    <path fill="#222" fill-rule="nonzero" d="M10.0428503,1.13279491 C10.2995655,0.822628848 10.8042298,0.850825763 11.0158633,1.21738566 L11.0158633,1.21738566 L20.6739856,17.9457441 L20.7130633,18.0263126 C20.8642793,18.4068289 20.5860989,18.8392338 20.158129,18.8392338 L20.158129,18.8392338 L0.841884503,18.8392338 L0.752571266,18.8327919 C0.347426453,18.7734907 0.112043022,18.3163769 0.326027959,17.9457441 L0.326027959,17.9457441 L9.98415021,1.21738566 Z M10.4991754,2.70571118 L1.87340834,17.6472523 L19.1260632,17.6472523 L10.4991754,2.70571118 Z"/>
  </g>
</svg>
