<svg xmlns="http://www.w3.org/2000/svg" width="70" height="70" viewBox="0 0 70 70">
  <path d="M49.9179096,13.7575623 C48.1994524,13.7575623 46.6518504,14.1025496 45.2751037,14.6184417 L41.3190204,8.08302184 L42.5216103,5.15867318 L43.0374777,5.15867318 C44.0692123,5.15867318 44.7559349,4.47192585 44.7559349,3.44021597 C44.7559349,2.4085061 44.0691875,1.72175876 43.0374777,1.72175876 L37.8788045,1.72175876 C36.8470698,1.72175876 36.1603473,2.4085061 36.1603473,3.44021597 C36.1603473,4.47192585 36.8470946,5.15867318 37.8788045,5.15867318 L38.7396839,5.15867318 L38.0529365,6.8771304 L22.4027602,6.8771304 L22.4027602,0 L13.803871,0 L13.803871,3.44021597 L18.9625442,3.44021597 L18.9625442,8.2538771 L15.8673403,14.4442849 C14.6647504,13.9284176 13.4620779,13.7575376 12.0854138,13.7575376 C5.37913865,13.7575376 0.0496102047,19.087066 0.0496102047,25.7933412 C0.0496102047,32.4996163 5.37913865,37.8291447 12.0854138,37.8291447 C18.7916889,37.8291447 24.1212174,32.4996163 24.1212174,25.7933412 C24.1212174,21.6664026 22.0577481,18.0553314 18.9625442,15.9918621 L21.0260135,12.0357788 L31.8592271,27.6826536 L38.049635,27.6826536 C38.9105143,33.5280494 43.8950307,38 49.9145833,38 C56.6208584,38 61.9503883,32.6704716 61.9503883,25.9641964 C61.9536108,19.087066 56.6240774,13.7575376 49.9178848,13.7575376 L49.9179096,13.7575623 Z M20.6843277,25.7933659 C20.6843277,30.607027 16.9024012,34.3922551 12.0854385,34.3922551 C7.27177743,34.3922551 3.48654939,30.6103286 3.48654939,25.7933659 C3.48654939,20.9797048 7.26847587,17.1944768 12.0854385,17.1944768 C12.7721859,17.1944768 13.6330405,17.3653568 14.3197631,17.5394641 L10.5378366,25.1066186 C10.3669566,25.2774986 10.3669566,25.4483786 10.3669566,25.7933659 C10.3669566,26.8251006 11.0537039,27.5118231 12.0854138,27.5118231 C12.7721611,27.5118231 13.2880037,27.1668358 13.6330157,26.4800885 L17.4149422,18.912934 C19.3075562,20.6346102 20.6843277,23.0430915 20.6843277,25.7932834 L20.6843277,25.7933659 Z M42.3507551,16.5077542 C40.1164306,18.4003682 38.5688286,20.9797048 38.0529613,24.0749087 L35.3027694,24.0749087 L39.77472,12.2099604 L42.3507551,16.5077542 Z M44.0692123,19.4321028 L46.8194041,24.0749087 L41.4898757,24.0749087 C41.834863,22.1822947 42.8666224,20.6346927 44.0692123,19.4321028 L44.0692123,19.4321028 Z M32.204264,22.1822947 L23.9503869,10.3173464 L36.8470698,10.3173464 L32.204264,22.1822947 Z M49.9179096,34.3923318 C45.7909711,34.3923318 42.3507551,31.4679064 41.4931773,27.5151247 L49.9179096,27.5118999 C50.9496442,27.5118999 51.6363668,26.8251526 51.6363668,25.7934427 C51.6363668,25.4484554 51.4654868,25.1066953 51.2913795,24.9325633 L46.9935857,17.7104208 C47.8544651,17.3654335 48.8861997,17.1945535 49.9179344,17.1945535 C54.7315955,17.1945535 58.5168235,20.97648 58.5168235,25.7934427 C58.5135987,30.6071038 54.731678,34.3923318 49.9179344,34.3923318 L49.9179096,34.3923318 Z" transform="matrix(-1 0 0 1 66 16)"/>
</svg>
