<svg xmlns="http://www.w3.org/2000/svg" width="70" height="70" viewBox="0 0 70 70">
  <g fill="none" fill-rule="evenodd">
    <path fill="#000" fill-rule="nonzero" d="M34.5287503,4.95519301 C42.8888204,4.95519301 50.4678386,8.29927413 56.001122,13.7227536 L51.6858623,16.311979 C47.1228084,12.2569489 41.113417,9.79390269 34.5287503,9.79390269 C20.258425,9.79390269 8.6900406,21.3622871 8.6900406,35.6326124 C8.6900406,49.9029377 20.258425,61.471322 34.5287503,61.471322 C48.7990756,61.471322 60.36746,49.9029377 60.36746,35.6326124 C60.36746,33.4413806 59.5812788,29.6268434 59.5812788,29.2821374 C59.5812788,28.9374315 63.4602513,26.3972359 63.8855077,26.700474 C64.3107641,27.0037121 65.2061696,32.5257226 65.2061696,35.6326124 C65.2061696,52.5752832 51.4714212,66.3100317 34.5287503,66.3100317 C17.5860794,66.3100317 3.85133093,52.5752832 3.85133093,35.6326124 C3.85133093,18.6899415 17.5860794,4.95519301 34.5287503,4.95519301 Z"/>
    <path fill="#000" fill-rule="nonzero" d="M25.9798392,48.0443652 C27.0804159,45.3837889 27.7670025,43.6463044 28.0395991,42.8319116 L42.9164919,48.5118555 C47.9353505,48.6288638 50.6269229,48.4730337 50.9912093,48.0443652 C51.5376387,47.4013625 39.437364,19.3041314 38.6326499,18.577188 C37.8279359,17.8502447 31.5462351,17.8502447 30.7298977,18.577188 C29.9135604,19.3041314 17.3705161,47.4814212 18.077087,48.0443652 C18.7836579,48.6073092 25.1067499,48.6073092 25.9798392,48.0443652 Z M39.9938896,40.2754773 L30.5071318,36.87374 L34.5410363,26.0022334 L39.9938896,40.2754773 Z"/>
    <path fill="#000" fill-rule="nonzero" d="M46.6260434,21.4973069 C46.7634493,21.7522106 59.8004907,21.8833851 60.1823951,21.4973069 C60.5642995,21.1112287 60.5123838,8.41656971 60.1823951,8.30083963 C59.8524064,8.18510956 46.4886374,21.2424032 46.6260434,21.4973069 Z" transform="rotate(7 53.537 15.02)"/>
  </g>
</svg>
