<svg xmlns="http://www.w3.org/2000/svg" width="70" height="70" viewBox="0 0 70 70">
  <path d="M33.7924769,54.0052499 C34.093697,53.337684 35.0653179,53.5112216 35.2249945,54.2276259 L35.2249945,54.2276259 L35.7054688,56.6467534 C35.7529477,56.9968875 36.0236748,57.2678928 36.3583016,57.28261 L36.3583016,57.28261 L38.7779506,57.6163147 C39.4926544,57.7284749 39.6537468,58.7148002 39.0164745,59.0977121 L39.0164745,59.0977121 L36.8353303,60.245373 C36.515768,60.4352516 36.3741489,60.7382382 36.4216406,61.0883755 L36.4216406,61.0883755 L36.8373804,63.4914306 C36.9324085,64.1916892 36.0588555,64.7165565 35.7269976,64.160728 L35.7269976,64.160728 L33.9104114,62.4893945 C33.6235801,62.2830886 33.2895726,62.2658872 32.9879987,62.3942019 L32.9879987,62.3942019 L30.8068545,63.5418628 C30.1080308,63.9067353 29.4059643,63.1925816 29.7078229,62.5225091 L29.7078229,62.5225091 L30.7407306,60.2771911 C30.8823528,59.9741917 30.770168,59.6079246 30.5641341,59.3530491 L30.5641341,59.3530491 L28.8277674,57.6356811 C28.2856844,57.096193 28.7776999,56.2039504 29.4955424,56.3142139 L29.4955424,56.3142139 L31.9151913,56.6479187 C32.2336884,56.7273289 32.5507727,56.5368054 32.6948761,56.2344382 L32.6948761,56.2344382 Z M14.5101485,46.5573764 C14.771696,46.1624291 15.4948906,46.3599159 15.4948906,46.8856238 L15.4948906,46.8856238 L15.5615643,48.5935606 C15.5615643,48.8576947 15.7590248,49.0525949 15.9564853,49.1192685 L15.9564853,49.1192685 L17.5977748,49.6449896 C18.1234827,49.775829 18.1234827,50.4964042 17.731122,50.6964316 L17.731122,50.6964316 L16.089885,51.2862528 C15.8257509,51.3529264 15.694964,51.5503869 15.694964,51.8119607 L15.694964,51.8119607 L15.694964,53.5198975 C15.694964,54.0456054 15.0384692,54.2430659 14.7102218,53.8481449 L14.7102218,53.8481449 L13.6587798,52.4684555 C13.5279929,52.270995 13.2664191,52.2043214 13.0689586,52.270995 L13.0689586,52.270995 L11.4277216,52.7967029 C10.9020137,52.9274766 10.4429794,52.4017687 10.7712268,51.9427344 L10.7712268,51.9427344 L11.755969,50.4989711 C11.8867559,50.3015106 11.8867559,50.0399368 11.755969,49.8424763 L11.755969,49.8424763 L10.7045269,48.4627869 C10.3763058,48.0678527 10.7686402,47.4780315 11.2943481,47.6088184 L11.2943481,47.6088184 L12.9355851,48.1345263 C13.1304853,48.1986396 13.3946194,48.1345263 13.5254063,47.9370658 L13.5254063,47.9370658 Z M48.6859257,46.9670656 C49.2906242,46.362367 50.2499126,46.362367 50.8546111,46.9670656 L50.8546111,46.9670656 L54.3823557,50.4455952 C54.9870543,51.0502938 54.9870543,52.0095821 54.3823557,52.6142807 C54.0810149,52.9156517 53.6772102,53.0673205 53.2734055,53.0673205 C52.8696007,53.0673205 52.4677929,52.9176183 52.1644552,52.6142807 L52.1644552,52.6142807 L48.6859257,49.1357511 C48.0812271,48.5310525 48.0812271,47.5717642 48.6859257,46.9670656 Z M26.6083136,16.7677547 C34.9988109,12.8552015 45.004601,16.4485989 48.9160444,24.8367163 C52.8283201,33.2266187 49.2626273,43.2933748 40.8144163,47.2328403 C32.3632303,51.173693 22.3909391,47.4936875 18.4783859,39.1031901 C14.5375332,30.6520041 18.2175387,20.6797129 26.6080361,16.7671597 Z M28.3010158,20.3977664 C21.9353759,23.366113 19.1729795,30.9554634 22.1413816,37.3212222 C25.1380278,43.7475507 32.7273782,46.5099471 39.093137,43.541545 L39.093137,43.541545 Z M5.29874925,27.1708385 C5.46900092,26.4252409 6.486394,26.3696772 6.77328381,27.0368729 L6.77328381,27.0368729 L7.77250474,29.2656882 C7.87393877,29.57787 8.20354096,29.7458107 8.53632607,29.7077871 L8.53632607,29.7077871 L11.0084247,29.4573155 C11.7341751,29.3590086 12.1018875,30.2749508 11.5789579,30.7900007 L11.5789579,30.7900007 L9.78203393,32.4794083 C9.51026342,32.7052155 9.42390134,33.078416 9.58874574,33.3699945 L9.58874574,33.3699945 L10.5879667,35.5988098 C10.8715847,36.2643489 10.1204994,36.9236358 9.45806879,36.5861106 L9.45806879,36.5861106 L7.32896685,35.344563 C6.99859844,35.1741791 6.66660452,35.2146378 6.39483807,35.4404576 L6.39483807,35.4404576 L4.57724028,37.0664501 C4.03374453,37.5181189 3.1257193,37.0554413 3.42123067,36.4794657 L3.42123067,36.4794657 L3.87595787,34.0532413 C3.89891769,33.7006691 3.73650831,33.4082994 3.46788147,33.2205466 L3.46788147,33.2205466 L1.33877953,31.978999 C0.659029917,31.579716 0.892628059,30.605886 1.62084243,30.5067923 L1.62084243,30.5067923 L4.07233783,30.1929103 C4.40434423,30.1524476 4.65550741,29.8632175 4.76247276,29.5534274 L4.76247276,29.5534274 Z M62.4902404,29.6786438 C63.7641783,29.6786438 64.8101358,30.7275931 64.8101358,31.9985392 C64.8101358,33.2724772 63.7611865,34.3184347 62.4902404,34.3184347 L62.4902404,34.3184347 L55.1595622,34.3213562 C53.8856242,34.3213562 52.8396667,33.2724069 52.8396667,32.0014608 C52.8396667,30.8035118 53.8886161,29.7575319 55.1595622,29.6786438 L55.1595622,29.6786438 Z M13.3269626,10.9442165 C13.4140363,10.4088825 14.1262882,10.2822103 14.3630048,10.722288 L14.3630048,10.722288 L15.2206774,12.227803 C15.3043072,12.4187011 15.5124151,12.5317805 15.7729935,12.5089828 L15.7729935,12.5089828 L17.4572213,12.1634172 C17.9751155,12.0511527 18.3593311,12.6765407 17.9945215,13.0379586 L17.9945215,13.0379586 L16.8560112,14.3242971 C16.6765119,14.538216 16.6993096,14.7987944 16.7829393,14.9896925 L16.7829393,14.9896925 L17.6406119,16.4952075 C17.8831549,17.0017301 17.3994549,17.5048361 16.9193697,17.2842651 L16.9193697,17.2842651 L15.340226,16.5651919 C15.1321181,16.4521125 14.8773507,16.54133 14.6920404,16.6888291 L14.6920404,16.6888291 L13.487084,17.9809808 C13.1248524,18.3421864 12.4422459,18.0723923 12.5267167,17.537286 L12.5267167,17.537286 L12.7048585,15.8072397 C12.7484807,15.5408503 12.6009817,15.3555401 12.3928738,15.2424607 L12.3928738,15.2424607 L10.8832649,14.584364 C10.3973687,14.2973731 10.4704383,13.6319515 10.9883348,13.5197132 L10.9883348,13.5197132 L12.6725626,13.1741475 C12.8636838,13.0930684 13.0462204,12.943242 13.0898426,12.6768526 L13.0898426,12.6768526 Z M52.1573408,11.3844924 C52.7622089,10.7796242 53.7217663,10.7796242 54.3266345,11.3844924 C54.9315027,11.9893606 54.9315027,12.948918 54.3266345,13.5537862 L54.3266345,13.5537862 L50.8471293,17.0332914 C50.545704,17.334747 50.1417759,17.4864583 49.737868,17.4864583 C49.3851459,17.4864583 48.9812582,17.3367141 48.6778355,17.0332914 C48.0729674,16.4284232 48.0729674,15.4688658 48.6778355,14.8639976 L48.6778355,14.8639976 Z M33.7097654,0.119841581 C34.9837034,0.119841581 36.0296609,1.16879096 36.0296609,2.43973705 L36.0296609,2.43973705 L36.0325825,9.77041524 C36.0325825,11.0443532 34.9836331,12.0903107 33.712687,12.0903107 C32.514738,12.0903107 31.4687581,11.0413613 31.38987,9.77041524 L31.38987,9.77041524 L31.38987,2.43973705 C31.38987,1.16579909 32.4388193,0.119841581 33.7097654,0.119841581 Z" transform="translate(2 3)"/>
</svg>
