<svg xmlns="http://www.w3.org/2000/svg" width="70" height="70" viewBox="0 0 70 70">
  <path fill="#222" d="M54.7403444,3.23070633 C56.852182,3.23070633 58.5694368,4.94796607 58.5694368,7.05980364 L58.5694368,7.05980364 L58.5694368,8.68002715 L61.2117175,8.68001721 C65.3803365,8.68001721 68.7728709,12.0724688 68.7728709,16.2411706 L68.7728709,16.2411706 L68.7728709,59.2081403 C68.7728709,63.3767592 65.3804193,66.7692937 61.2117175,66.7692937 L61.2117175,66.7692937 L9.26024838,66.7692937 C5.09162938,66.7692937 1.69909496,63.376842 1.69909496,59.2081403 L1.69909496,59.2081403 L1.69909496,16.2411706 C1.69909496,12.0725516 5.09154659,8.68001721 9.26024838,8.68001721 L9.26024838,8.68001721 L11.9056751,8.68325104 L11.9056751,7.05979867 C11.9056751,4.94796111 13.6229299,3.23070633 15.7347675,3.23070633 C17.846605,3.23070633 19.5638598,4.94796111 19.5638598,7.05979867 L19.5638598,7.05979867 L19.5638598,8.68002218 L31.416246,8.683256 L31.416246,7.05980364 C31.416246,4.94796607 33.1335008,3.23070633 35.2421095,3.23070633 C37.3507182,3.23070633 39.067973,4.94796607 39.067973,7.05980364 L39.067973,7.05980364 L39.067973,8.683256 L50.9112521,8.683256 L50.9112521,7.05980364 C50.9112521,4.94796607 52.6285069,3.23070633 54.7403444,3.23070633 Z M65.5897154,23.8222039 L4.88390629,23.8222039 L4.88390629,59.2088125 C4.88390629,61.6246593 6.84373924,63.5877211 9.25958605,63.5877211 L9.25958605,63.5877211 L61.2108068,63.5877211 C63.6266536,63.5877211 65.5897154,61.6246593 65.5897154,59.2088125 L65.5897154,59.2088125 L65.5897154,23.8222039 Z M51.7903278,36.5310503 L61.7432467,60.2623299 L55.1418209,60.2623299 L53.5168545,56.0645001 L43.2592544,56.0645001 L41.6004345,60.2623299 L35.2359829,60.2623299 L45.4258762,36.5310503 L51.7903278,36.5310503 Z M48.4388346,42.8616484 L45.121195,51.3250149 L51.6887674,51.3250149 L48.4388346,42.8616484 Z M11.901784,11.8655836 L9.26058534,11.8655836 C6.84473853,11.8655836 4.88490558,13.8286454 4.88490558,16.2412634 L4.88490558,16.2412634 L4.88490558,20.6363162 L65.5807797,20.6363162 L65.5807797,16.2412634 C65.5807797,13.8286454 63.6177179,11.8655836 61.2018711,11.8655836 L61.2018711,11.8655836 L58.5596732,11.8655836 L58.5596732,13.489036 C58.5596732,15.5976447 56.8424184,17.3148995 54.7305809,17.3148995 C52.6187433,17.3148995 50.9014885,15.5976447 50.9014885,13.489036 L50.9014885,13.489036 L50.9014885,11.8655836 L39.0582094,11.8655836 L39.0549747,13.489036 C39.0549747,15.5976447 37.33772,17.3148995 35.2291113,17.3148995 C33.1205025,17.3148995 31.4032478,15.5976447 31.4032478,13.489036 L31.4032478,13.489036 L31.4032478,11.8655836 L19.5599686,11.8655836 L19.5599686,13.489036 C19.5599686,15.5976447 17.8427139,17.3148995 15.7308763,17.3148995 C13.6190387,17.3148995 11.901784,15.5976447 11.901784,13.489036 L11.901784,13.489036 L11.901784,11.8655836 Z M54.7370742,6.4129975 C54.3813287,6.4129975 54.090268,6.7040582 54.090268,7.05980364 L54.090268,7.05980364 L54.090268,13.4858071 C54.090268,13.8415526 54.3813287,14.1326133 54.7370742,14.1326133 C55.0960485,14.1326133 55.3838803,13.8415526 55.3838803,13.4858071 L55.3838803,13.4858071 L55.3838803,7.05980364 C55.3838803,6.7040582 55.0960485,6.4129975 54.7370742,6.4129975 Z M35.2356849,6.4129975 C34.8799477,6.4129975 34.5921159,6.7040582 34.5921159,7.05980364 L34.5921159,7.05980364 L34.5921159,13.4858071 C34.5921159,13.8415526 34.8799394,14.1326133 35.2356849,14.1326133 C35.5914303,14.1326133 35.882491,13.8415526 35.882491,13.4858071 L35.882491,13.4858071 L35.882491,7.05980364 C35.882491,6.7040582 35.591422,6.4129975 35.2356849,6.4129975 Z M15.7341465,6.4129975 C15.3751722,6.4129975 15.0873404,6.7040582 15.0873404,7.05980364 L15.0873404,7.05980364 L15.0873404,13.4858071 C15.0873404,13.8415526 15.3751722,14.1326133 15.7341465,14.1326133 C16.0931208,14.1326133 16.3809527,13.8415526 16.3809527,13.4858071 L16.3809527,13.4858071 L16.3809527,7.05980364 C16.3809527,6.7040582 16.0931208,6.4129975 15.7341465,6.4129975 Z"/>
</svg>
