<svg xmlns="http://www.w3.org/2000/svg" width="70" height="70" viewBox="0 0 70 70">
  <path d="M15.22,8.18731507 L15.2204286,12.0593151 C15.2204286,13.4400269 16.3397167,14.5593151 17.7204286,14.5593151 L18.9204286,14.5593151 C20.3011405,14.5593151 21.4204286,13.4400269 21.4204286,12.0593151 L21.42,8.18731507 L47.071,8.18731507 L47.0716839,12.0593151 C47.0716839,13.4400269 48.190972,14.5593151 49.5716839,14.5593151 L50.7716839,14.5593151 C52.1523958,14.5593151 53.2716839,13.4400269 53.2716839,12.0593151 L53.271,8.18731507 L57.7478304,8.18769858 C62.4826787,8.18769858 66.3536892,11.971498 66.4931925,16.6764363 L66.4970838,16.9339656 L66.4970838,25.6862054 L66.5,57.1884452 C66.5,61.9290862 62.7104393,65.8002044 58.0052952,65.936947 L57.7477602,65.9406849 L12.2522398,65.9406849 C7.51159876,65.9406849 3.64048049,62.1511243 3.50373795,57.4459801 L3.5,57.1884452 L3.5,16.9399383 C3.5,12.1992973 7.28956066,8.32817907 11.9947048,8.19143654 L12.2522398,8.18769858 L15.22,8.18731507 Z M62.993878,25.6854588 L6.99947739,25.6854588 L6.99947739,57.1824725 C6.99947739,60.0031716 9.23681226,62.310953 12.0355036,62.4245791 L12.2518665,62.4289635 L57.7473869,62.4289635 C60.5680861,62.4289635 62.8758674,60.1916996 62.9894936,57.3984093 L62.993878,57.1824725 L62.993878,25.6854588 Z M48.02828,51.5850806 C49.1328495,51.5850806 50.02828,52.4805111 50.02828,53.5850806 L50.02828,54.5850806 C50.02828,55.6896501 49.1328495,56.5850806 48.02828,56.5850806 L14.02828,56.5850806 C12.9237105,56.5850806 12.02828,55.6896501 12.02828,54.5850806 L12.02828,53.5850806 C12.02828,52.4805111 12.9237105,51.5850806 14.02828,51.5850806 L48.02828,51.5850806 Z M55.2499665,41.3991449 C56.354536,41.3991449 57.2499665,42.2945754 57.2499665,43.3991449 L57.2499665,44.3991449 C57.2499665,45.5037144 56.354536,46.3991449 55.2499665,46.3991449 L14.02828,46.3991449 C12.9237105,46.3991449 12.02828,45.5037144 12.02828,44.3991449 L12.02828,43.3991449 C12.02828,42.2945754 12.9237105,41.3991449 14.02828,41.3991449 L55.2499665,41.3991449 Z M55.2499665,31.2132091 C56.354536,31.2132091 57.2499665,32.1086396 57.2499665,33.2132091 L57.2499665,34.2132091 C57.2499665,35.3177786 56.354536,36.2132091 55.2499665,36.2132091 L28.2499665,36.2132091 C27.145397,36.2132091 26.2499665,35.3177786 26.2499665,34.2132091 L26.2499665,33.2132091 C26.2499665,32.1086396 27.145397,31.2132091 28.2499665,31.2132091 L55.2499665,31.2132091 Z M18.9204286,4.05931507 C19.4727133,4.05931507 19.9204286,4.50703032 19.9204286,5.05931507 L19.9204286,12.0593151 C19.9204286,12.6115998 19.4727133,13.0593151 18.9204286,13.0593151 L17.7204286,13.0593151 C17.1681438,13.0593151 16.7204286,12.6115998 16.7204286,12.0593151 L16.7204286,5.05931507 C16.7204286,4.50703032 17.1681438,4.05931507 17.7204286,4.05931507 L18.9204286,4.05931507 Z M50.7716839,4.05931507 C51.3239686,4.05931507 51.7716839,4.50703032 51.7716839,5.05931507 L51.7716839,12.0593151 C51.7716839,12.6115998 51.3239686,13.0593151 50.7716839,13.0593151 L49.5716839,13.0593151 C49.0193991,13.0593151 48.5716839,12.6115998 48.5716839,12.0593151 L48.5716839,5.05931507 C48.5716839,4.50703032 49.0193991,4.05931507 49.5716839,4.05931507 L50.7716839,4.05931507 Z"/>
</svg>
