<svg xmlns="http://www.w3.org/2000/svg" width="70" height="70" viewBox="0 0 70 70">
  <path d="M20.2550732,3.75331926 C20.807358,3.75331926 21.2550732,4.20103451 21.2550732,4.75331926 L21.254218,9.00531926 L49.257218,9.00531926 L49.2578619,4.75331926 C49.2578619,4.20103451 49.7055772,3.75331926 50.2578619,3.75331926 L51.7500826,3.75331926 C52.3023673,3.75331926 52.7500826,4.20103451 52.7500826,4.75331926 L52.749218,9.00531926 L58.0010484,9.00570834 C62.7358967,9.00570834 66.6069072,12.7895077 66.7464105,17.4944461 L66.7503019,17.7519754 L66.7503019,26.5042152 L66.753218,58.0064549 C66.753218,62.8332894 62.8246024,66.7586947 58.0009783,66.7586947 L58.0009783,66.7586947 L12.5054578,66.7586947 C7.67862331,66.7586947 3.75321802,62.8300791 3.75321802,58.0064549 L3.75321802,58.0064549 L3.75321802,17.7579481 C3.75321802,12.9311136 7.68183364,9.00570834 12.5054578,9.00570834 L12.5054578,9.00570834 L17.762218,9.00531926 L17.7628526,4.75331926 C17.7628526,4.20103451 18.2105678,3.75331926 18.7628526,3.75331926 L20.2550732,3.75331926 Z M63.247096,26.5034686 L7.25269541,26.5034686 L7.25269541,58.0004822 C7.25269541,60.893507 9.60623637,63.2469733 12.5050845,63.2469733 L12.5050845,63.2469733 L58.000605,63.2469733 C60.8936297,63.2469733 63.247096,60.893507 63.247096,58.0004822 L63.247096,58.0004822 L63.247096,26.5034686 Z M51.3312834,53.4030904 C52.412389,53.4030904 53.2887982,54.2794996 53.2887982,55.3606051 C53.2887982,56.4417107 52.412389,57.3181199 51.3312834,57.3181199 L14.2390128,57.3181199 C13.1579073,57.3181199 12.2814981,56.4417107 12.2814981,55.3606051 C12.2814981,54.2794996 13.1579073,53.4030904 14.2390128,53.4030904 L51.3312834,53.4030904 Z M55.5456698,43.2171546 C56.6267754,43.2171546 57.5031846,44.0935638 57.5031846,45.1746694 C57.5031846,46.255775 56.6267754,47.1321842 55.5456698,47.1321842 L14.2390128,47.1321842 C13.1579073,47.1321842 12.2814981,46.255775 12.2814981,45.1746694 C12.2814981,44.0935638 13.1579073,43.2171546 14.2390128,43.2171546 L55.5456698,43.2171546 Z M55.5456698,33.0312189 C56.6267754,33.0312189 57.5031846,33.9076281 57.5031846,34.9887337 C57.5031846,36.0698392 56.6267754,36.9462485 55.5456698,36.9462485 L20.6826814,36.9462485 C19.6015758,36.9462485 18.7251666,36.0698392 18.7251666,34.9887337 C18.7251666,33.9076281 19.6015758,33.0312189 20.6826814,33.0312189 L55.5456698,33.0312189 Z M17.762218,12.4993193 L12.5054578,12.499437 C9.606535,12.499437 7.25306871,14.8558897 7.25306871,17.7518261 L7.25306871,17.7518261 L7.25306871,23.0042152 L63.2471707,23.0042152 L63.2471707,17.7517514 C63.2471707,14.855815 60.8937044,12.5052604 58.0006796,12.5052604 L58.0006796,12.5052604 L52.749218,12.5043193 L52.7500826,15.0013304 C52.7500826,15.5536151 52.3023673,16.0013304 51.7500826,16.0013304 L50.2578619,16.0013304 C49.7055772,16.0013304 49.2578619,15.5536151 49.2578619,15.0013304 L49.257218,12.5043193 L21.254218,12.5043193 L21.2550732,15.0013304 C21.2550732,15.5536151 20.807358,16.0013304 20.2550732,16.0013304 L18.7628526,16.0013304 C18.2105678,16.0013304 17.7628526,15.5536151 17.7628526,15.0013304 L17.762218,12.4993193 Z"/>
</svg>
