<svg xmlns="http://www.w3.org/2000/svg" width="21" height="21" viewBox="0 0 21 21">
  <path fill="#222" d="M14.5339275,20.1630369 L5.22444398,10.8535534 C5.02918184,10.6582912 5.02918184,10.3417088 5.22444398,10.1464466 L14.5339275,0.836963075 C14.7291897,0.641700929 15.0457722,0.641700929 15.2410343,0.836963075 C15.2418701,0.837798885 15.242703,0.838637657 15.2435328,0.839479374 L15.7805531,1.38417139 C15.973454,1.57982802 15.9723382,1.89447822 15.7780546,2.08876187 L7.72036985,10.1464466 C7.52510771,10.3417088 7.52510771,10.6582912 7.72036985,10.8535534 L15.7780546,18.9112381 C15.9723382,19.1055218 15.973454,19.420172 15.7805531,19.6158286 L15.2435328,20.1605206 C15.0496604,20.3571627 14.7330859,20.3594079 14.5364438,20.1655354 C14.5356021,20.1647056 14.5347633,20.1638727 14.5339275,20.1630369 Z"/>
</svg>
