<svg xmlns="http://www.w3.org/2000/svg" width="70" height="70" viewBox="0 0 70 70">
  <path d="M35,7 C42.1691913,7 49.3453824,9.73187805 54.8065931,15.1930887 C65.7315599,26.1180555 65.7315599,43.8813082 54.8065931,54.8062749 C43.8841718,65.7312417 26.1183737,65.7312417 15.1934069,54.8062749 C4.26844013,43.8813082 4.26844013,26.1180555 15.1934069,15.1930887 C20.6546176,9.73187805 27.8308087,7 35,7 Z M35.0000036,10.4515145 C28.7193341,10.4515145 22.4431448,12.8441709 17.643778,17.6435376 C8.04725393,27.239448 8.04786763,42.7594645 17.643778,52.3559887 C27.2396884,61.9525128 42.759705,61.9518991 52.3562291,52.3559887 C61.9527532,42.7600782 61.9527532,27.2400617 52.3562291,17.6435376 C47.5570465,12.8439868 41.280673,10.4515145 35.0000036,10.4515145 Z M48.2901744,21.5366639 C48.4083555,21.5299695 48.4976571,21.5632935 48.5579364,21.6255052 C48.6614699,21.732405 48.6624482,21.9328986 48.5444151,22.2120535 L48.4864951,22.3364638 L40.4136278,38.4217586 C40.0902151,39.0572174 39.2663155,39.9148446 38.5997279,40.3116241 L38.448992,40.394697 L22.2678225,48.4285286 C21.6159235,48.7573611 21.2989012,48.5218348 21.5534095,47.9130836 L21.5776883,47.8508745 L21.5776883,47.8508745 L21.6069904,47.7886659 L29.6798577,31.703371 C29.999131,31.0617858 30.8516129,30.1902738 31.5276587,29.7951031 L31.6802142,29.7126871 L47.8436663,21.6788556 C48.0155712,21.5944278 48.1718505,21.5433292 48.2901744,21.5366639 Z M35.0064788,31.2104851 C32.9274953,31.2104851 31.2103579,32.9276225 31.2103579,35.0066061 C31.2103579,37.0855897 32.9274953,38.802727 35.0064788,38.802727 C37.0854624,38.802727 38.8025998,37.0855897 38.8025998,35.0066061 C38.8025998,32.9276225 37.0854624,31.2104851 35.0064788,31.2104851 Z"/>
</svg>
