<svg xmlns="http://www.w3.org/2000/svg" width="21" height="21" viewBox="0 0 21 21">
  <path d="M10.5,0.332156306 C13.1034006,0.332156306 15.7093431,1.32420306 17.6925122,3.30737221 C21.6597749,7.27463487 21.6597749,13.725134 17.6925122,17.6923967 C13.7261739,21.6596594 7.27475041,21.6596594 3.30748776,17.6923967 C-0.6597749,13.725134 -0.6597749,7.27463487 3.30748776,3.30737221 C5.29065692,1.32420306 7.89659942,0.332156306 10.5,0.332156306 Z M10.5,1.86121049 C8.28979333,1.86121049 6.08116322,2.70320119 4.3922362,4.39212821 C1.01515962,7.76898882 1.01537559,13.2305792 4.3922362,16.6076558 C7.7690968,19.9847324 13.2306872,19.9845164 16.6077638,16.6076558 C19.9848404,13.2307952 19.9848404,7.76920479 16.6077638,4.39212821 C14.9189016,2.7031364 12.7102067,1.86121049 10.5,1.86121049 Z M15.5031443,5.36634284 C15.5478019,5.36380091 15.5815468,5.37645442 15.6043248,5.40007689 C15.6400942,5.43718867 15.6434691,5.50400783 15.6096972,5.59620095 L15.577329,5.67003569 L12.5267945,11.7777995 C12.4116355,12.0051696 12.1285473,12.3074464 11.8855088,12.4676287 L11.7844079,12.526946 L5.66994907,15.5774804 C5.42361275,15.7023417 5.30381799,15.6129098 5.39999028,15.3817602 L5.40916464,15.3581388 L5.40916464,15.3581388 L5.42023718,15.3345174 L8.4707716,9.22675365 C8.58445665,8.99719148 8.87705014,8.69010674 9.12418071,8.52988813 L9.22665623,8.47086901 L15.33442,5.4203346 C15.3993786,5.38827645 15.4584326,5.36887376 15.5031443,5.36634284 Z M10.5022115,9.42241978 C9.91082901,9.42241978 9.42237636,9.91087243 9.42237636,10.502255 C9.42237636,11.0936375 9.91082901,11.5820902 10.5022115,11.5820902 C11.0935941,11.5820902 11.5820467,11.0936375 11.5820467,10.502255 C11.5820467,9.91087243 11.0935941,9.42241978 10.5022115,9.42241978 Z"/>
</svg>
