<svg xmlns="http://www.w3.org/2000/svg" width="70" height="70" viewBox="0 0 70 70">
  <path d="M35,7 C42.1691913,7 49.3453824,9.73187805 54.8065931,15.1930887 C65.7315599,26.1180555 65.7315599,43.8813082 54.8065931,54.8062749 C43.8841718,65.7312417 26.1183737,65.7312417 15.1934069,54.8062749 C4.26844013,43.8813082 4.26844013,26.1180555 15.1934069,15.1930887 C20.6546176,9.73187805 27.8308087,7 35,7 Z M48.2900315,21.5366354 C48.1718505,21.5433292 48.0155712,21.5944278 47.8436663,21.6788556 L31.6802142,29.7126871 C30.9859191,30.0548345 30.0236904,31.0124331 29.6798577,31.703371 L21.6069904,47.7886659 C21.5824323,47.8308792 21.5712698,47.8708698 21.5534095,47.9130836 C21.2989012,48.5218348 21.6159235,48.7573611 22.2678225,48.4285286 L38.448992,40.394697 C39.1366002,40.0481019 40.0653372,39.1060989 40.4136278,38.4217586 L48.4864951,22.3364638 C48.6606347,21.9920925 48.6762604,21.7476764 48.5579364,21.6255052 C48.4976571,21.5632935 48.4083555,21.5299695 48.2900315,21.5366354 Z M35.0064788,31.2104851 C37.0854624,31.2104851 38.8025998,32.9276225 38.8025998,35.0066061 C38.8025998,37.0855897 37.0854624,38.802727 35.0064788,38.802727 C32.9274953,38.802727 31.2103579,37.0855897 31.2103579,35.0066061 C31.2103579,32.9276225 32.9274953,31.2104851 35.0064788,31.2104851 Z"/>
</svg>
