<svg xmlns="http://www.w3.org/2000/svg" width="21" height="21" version="1.1" viewBox="0 0 21 21">
  <path fill="#000" fill-rule="nonzero" stroke="none" stroke-width="1" d="M10.5,1 C12.9323765,1 15.367128,1.92688719 17.2200177,3.77979796 C20.9266608,7.48648311 20.9266608,13.513301 17.2200177,17.2199861 C13.5142383,20.9266713 7.4866253,20.9266713 3.77998227,17.2199861 C0.0733392423,13.513301 0.0733392423,7.48648311 3.77998227,3.77979796 C5.63287198,1.92688719 8.06762346,1 10.5,1 Z M15.0090666,5.93207273 C14.9689699,5.93434385 14.9159472,5.95168087 14.857623,5.980326 L9.37365692,8.70609027 C9.13809516,8.82217599 8.81162844,9.14707551 8.69497224,9.38150088 L5.95599482,14.8390116 L5.93781577,14.8812248 C5.85146575,15.0877654 5.95902563,15.1676761 6.18020315,15.0561079 L11.6701804,12.3303436 C11.9034734,12.2127489 12.218577,11.8931407 12.3367457,11.6609538 L15.0757231,6.20344307 C15.1348055,6.08660282 15.140107,6.00367591 15.0999619,5.96222499 C15.0795102,5.94111744 15.0492118,5.92981107 15.0090666,5.93207273 Z M10.5,9.5 C11.04766,9.5 11.5,9.95234 11.5,10.5 C11.5,11.04766 11.04766,11.5 10.5,11.5 C9.95234,11.5 9.5,11.04766 9.5,10.5 C9.5,9.95234 9.95234,9.5 10.5,9.5 Z"/>
</svg>
