<svg xmlns="http://www.w3.org/2000/svg" width="70" height="70" viewBox="0 0 70 70">
  <g transform="translate(2.968 4.5)">
    <path d="M31.5610083,0.455193012 C14.6183375,0.455193012 0.88358899,14.1899415 0.88358899,31.1326124 C0.88358899,48.0752832 14.6183375,61.8100317 31.5610083,61.8100317 C48.5036792,61.8100317 62.2384277,48.0752832 62.2384277,31.1326124 C62.2384277,14.1899415 48.5036792,0.455193012 31.5610083,0.455193012 Z M31.5610083,5.29390269 C45.8313337,5.29390269 57.399718,16.8622871 57.399718,31.1326124 C57.399718,45.4029377 45.8313337,56.971322 31.5610083,56.971322 C17.290683,56.971322 5.72229867,45.4029377 5.72229867,31.1326124 C5.72229867,16.8622871 17.290683,5.29390269 31.5610083,5.29390269 Z"/>
    <path d="M23.0120973,43.5443652 C24.112674,40.8837889 24.7992606,39.1463044 25.0718572,38.3319116 L39.94875,44.0118555 C44.9676086,44.1288638 47.659181,43.9730337 48.0234673,43.5443652 C48.5698968,42.9013625 36.469622,14.8041314 35.664908,14.077188 C34.860194,13.3502447 28.5784931,13.3502447 27.7621558,14.077188 C26.9458184,14.8041314 14.4027742,42.9814212 15.1093451,43.5443652 C15.8159159,44.1073092 22.139008,44.1073092 23.0120973,43.5443652 Z M37.0261476,35.7754773 L27.5393898,32.37374 L31.5732944,21.5022334 L37.0261476,35.7754773 Z"/>
  </g>
</svg>
