<svg xmlns="http://www.w3.org/2000/svg" width="21" height="21" viewBox="0 0 21 21">
  <path fill="#222" d="M10.8415613,1.14527451 L10.9132924,1.15357232 L13.4498386,1.60083386 C13.7423137,1.6524051 13.9586139,1.89151033 13.9885757,2.18950392 L13.9915104,2.2908397 L13.9831988,2.36264911 L13.7227389,3.83517773 L13.9736662,3.95363275 C14.2744008,4.10372638 14.5640829,4.27298858 14.842296,4.46124405 L15.1166708,4.65582412 L15.383307,4.86302743 L15.5266748,4.98387927 L16.7525192,4.12692929 C16.9296328,4.00291301 17.150427,3.97683051 17.3515939,4.04961331 L17.4502487,4.0942478 L17.5438736,4.15538571 L17.619096,4.22700698 L17.6683009,4.28840631 L19.1456737,6.39831336 C19.3124052,6.63643055 19.3006028,6.95025928 19.1208537,7.18210077 L19.045596,7.26489017 L18.9841321,7.3141403 L17.7591596,8.17096518 L17.852635,8.43244945 C17.9591167,8.75130762 18.0442205,9.07586412 18.1077751,9.4057009 L18.1641404,9.73728227 L18.2061016,10.0722909 L18.2224147,10.260148 L19.6949954,10.5198386 C19.9231338,10.5600656 20.1067264,10.7150829 20.1904912,10.9274509 L20.2201174,11.0218096 L20.2365527,11.122186 L20.2366671,11.2098445 L20.2283693,11.2815756 L19.7811073,13.8181245 C19.7295361,14.1105996 19.4904309,14.3268998 19.1924373,14.3568616 L19.0911015,14.3597963 L19.0192917,14.3514846 L17.5459384,14.0908765 L17.4282951,14.3419569 C17.2781851,14.6426988 17.1088934,14.9323946 16.9206102,15.2106037 L16.7260035,15.4849675 L16.5187781,15.7515756 L16.3970633,15.8957972 L17.2550146,17.1208055 C17.3790308,17.2979191 17.4051133,17.5187134 17.3323305,17.7198803 L17.2876961,17.818535 L17.2265581,17.91216 L17.1549369,17.9873824 L17.0935375,18.0365873 L14.9836305,19.5139601 C14.7455133,19.6806915 14.4316846,19.6688892 14.1998431,19.4891401 L14.1170537,19.4138824 L14.0678361,19.352465 L13.2093398,18.1261387 L12.9495498,18.220758 C12.630732,18.327248 12.3061731,18.4123639 11.9763211,18.4759271 L11.6447214,18.5322995 L11.3096927,18.5742637 L11.1209682,18.5905523 L10.8621052,20.0632817 C10.8218783,20.2914202 10.6668609,20.4750127 10.4544929,20.5587776 L10.3601343,20.5884037 L10.2597578,20.6048391 L10.1720994,20.6049535 L10.1003683,20.5966557 L7.56381932,20.1493937 C7.2713443,20.0978224 7.05504402,19.8587172 7.02508226,19.5607236 L7.02214755,19.4593878 L7.03044522,19.3876575 L7.2902397,17.9140761 L7.04014639,17.796435 C6.73944098,17.6463814 6.44976899,17.4771404 6.17155381,17.2888918 L5.89717326,17.094314 L5.63052467,16.8871045 L5.48630379,16.7653745 L4.26113926,17.6232956 C4.08402567,17.7473118 3.86323141,17.7733943 3.66206452,17.7006115 L3.56340978,17.6559771 L3.46978483,17.5948391 L3.39456244,17.5232179 L3.34535754,17.4618185 L1.86798472,15.3519115 C1.70125327,15.1137943 1.71305564,14.7999656 1.8928047,14.5681241 L1.96806241,14.4853347 L2.0294333,14.4361497 L3.25399264,13.5773038 L3.1611682,13.3176375 C3.05468439,12.9987657 2.96958615,12.6742066 2.90604687,12.344386 L2.84970032,12.0128273 L2.80776494,11.6778557 L2.79056389,11.4891058 L1.31866308,11.2303862 C1.0905246,11.1901593 0.906932084,11.0351419 0.823167216,10.8227739 L0.793541055,10.7284153 L0.777105713,10.6280388 L0.776991308,10.5403804 L0.785289116,10.4686493 L1.23255113,7.93210033 C1.28412237,7.6396253 1.52322759,7.42332503 1.82122119,7.39336326 L1.92255697,7.39042855 L1.9942877,7.39872629 L3.4670401,7.65837732 L3.58547905,7.40828003 C3.73557977,7.10752967 3.90485909,6.8178278 4.09312537,6.53961655 L4.28771353,6.26525187 L4.49491706,5.99864585 L4.61591529,5.8534566 L3.75864655,4.62941979 C3.63463028,4.4523062 3.60854778,4.23151194 3.68133057,4.03034505 L3.72596506,3.93169031 L3.78710298,3.83806536 L3.85872424,3.76284297 L3.92012358,3.71363807 L6.03003062,2.23626525 C6.26814782,2.0695338 6.58197655,2.08133617 6.81381804,2.26108523 L6.89660744,2.33634294 L6.94582516,2.39776059 L7.80282756,3.62195661 L8.06412927,3.52943311 C8.38295939,3.42292284 8.7075235,3.33778993 9.03737579,3.27421213 L9.3689743,3.21782594 L9.70399918,3.17584931 L9.89201034,3.15870151 L10.1515554,1.68694629 C10.1917824,1.4588078 10.3467997,1.27521529 10.5591677,1.19145042 L10.6535264,1.16182426 L10.7539028,1.14538892 L10.8415613,1.14527451 Z M11.3386202,2.47552367 L11.0031575,4.37988147 L10.4520881,4.38373714 C9.7163227,4.38910435 8.99991921,4.51663018 8.31719836,4.76272488 L8.02670766,4.87544289 L7.81291754,4.96874644 L7.31183838,5.19799708 L6.20272708,3.61499634 L5.15664137,4.34747343 L6.26484055,5.93111276 L5.8780709,6.32352966 C5.36171048,6.8475642 4.94537863,7.44433606 4.63668447,8.10115039 L4.51099922,8.3862813 L4.42583021,8.60340445 L4.23369007,9.12002949 L2.32930841,8.78391168 L2.10755969,10.0415112 L4.01172893,10.3788632 L4.01558444,10.9299071 C4.02088575,11.6653649 4.14837611,12.3817167 4.39446109,13.064611 L4.50717649,13.3551896 L4.60046107,13.5690207 L4.82972903,14.0701378 L3.24703236,15.1774043 L3.97933581,16.2244748 L5.56285704,15.117127 L5.95521011,15.5038337 C6.47955732,16.0203742 7.07639588,16.4367452 7.73303059,16.7453442 L8.01806944,16.8709805 L8.23511908,16.9561081 L8.75174385,17.1482481 L8.41594771,19.050823 L9.67354721,19.2725717 L10.0105785,17.3702039 L10.5615988,17.3663486 C11.2973978,17.3609996 12.0138152,17.2335002 12.6965024,16.9874504 L12.9869757,16.8747528 L13.2007363,16.7814718 L13.7018155,16.5522212 L14.8092667,18.1340838 L15.8565108,17.4007956 L14.7488133,15.8191055 L15.1355926,15.4266788 C15.6520266,14.9026067 16.0683919,14.3058414 16.3770998,13.6490544 L16.5027897,13.3639364 L16.5879596,13.1468278 L16.7800888,12.6302727 L18.682859,12.9641837 L18.9046077,11.7065842 L17.0020573,11.3714402 L16.9982017,10.8203802 C16.9928178,10.0848036 16.8653165,9.36840633 16.6192836,8.68548644 L16.5065943,8.3948978 L16.4133481,8.18109113 L16.1841149,7.68005002 L17.7661198,6.5708647 L17.0326579,5.52460535 L15.4510116,6.63304352 L15.0586298,6.24630847 C14.534234,5.72983534 13.9373653,5.31347625 13.28067,5.00480442 L12.9956032,4.87913167 L12.7785577,4.79398045 L12.2619329,4.60184042 L12.5972045,2.69744604 L11.3386202,2.47552367 Z M11.141004,7.11887141 C13.1977808,7.48153665 14.5711295,9.44288192 14.2084643,11.4996587 C13.8457991,13.5564355 11.8844538,14.9297842 9.82767701,14.567119 C7.77090024,14.2044537 6.39755149,12.2431085 6.76021673,10.1863317 C7.12288197,8.12955492 9.08422725,6.75620617 11.141004,7.11887141 Z M7.99095541,10.4033441 C7.74814283,11.7804027 8.66763088,13.0935677 10.0446894,13.3363803 C11.421748,13.5791929 12.734913,12.6597048 12.9777256,11.2826463 C13.2205382,9.90558769 12.3010502,8.59242267 10.9239916,8.34961009 C9.54693301,8.10679751 8.23376799,9.02628556 7.99095541,10.4033441 Z"/>
</svg>
