<svg xmlns="http://www.w3.org/2000/svg" width="21" height="21" version="1.1" viewBox="0 0 21 21">
  <path fill="#000" fill-rule="nonzero" stroke="none" stroke-width="1" d="M19.1038534,8.87720935 L17.545971,8.70924734 L17.545971,8.7083587 C17.3842289,8.68969628 17.2500331,8.57594427 17.2047142,8.42042902 C17.0731893,8.00985168 16.9052273,7.61260609 16.7026118,7.2331286 C16.6279631,7.0909383 16.6439589,6.91764813 16.7452689,6.79145139 L17.7290438,5.57216384 C17.8596815,5.4104218 17.8481288,5.17580552 17.7014953,5.02740434 L15.9720972,3.30157805 C15.8272405,3.15672139 15.5961915,3.1433919 15.4353231,3.27136318 L14.2089374,4.25513808 C14.0836325,4.35644811 13.9103378,4.37422303 13.7672602,4.30046153 C13.38867,4.09695194 12.9923344,3.9289922 12.5826443,3.79835912 C12.4289014,3.74948206 12.3186936,3.61440127 12.3018128,3.45444059 L12.1338508,1.89655811 C12.1116336,1.68949262 11.9374507,1.53307419 11.7295071,1.53218692 L9.2731411,1.53218692 C9.0642988,1.53218692 8.88922728,1.6894858 8.86700009,1.89655811 L8.69903807,3.45444059 L8.69814944,3.45444059 C8.68481904,3.62062579 8.57017817,3.76104839 8.41021976,3.80814182 C8.00052968,3.9378899 7.60417136,4.10585419 7.22560389,4.31024422 C7.08252405,4.38489299 6.90923615,4.36712034 6.78392668,4.26492078 L5.56197733,3.28114587 C5.39934802,3.15050824 5.16473174,3.16295046 5.01721783,3.31136074 L3.29139153,5.0380743 C3.14475807,5.18559731 3.13231585,5.41932632 3.26117666,5.58194653 L4.24495157,6.80123408 L4.24495157,6.80212272 C4.34715114,6.92654037 4.36492379,7.10072236 4.29027501,7.24291266 C4.08587588,7.62239015 3.91791842,8.01963573 3.78817261,8.43021308 C3.73929554,8.5830688 3.60421476,8.6923665 3.44425407,8.70838282 L1.88637159,8.87723438 C1.67930611,8.89945155 1.52200041,9.07452399 1.52200041,9.28337539 L1.52200041,11.7397413 C1.52377767,11.9468068 1.68018655,12.1209934 1.88637159,12.1440851 L3.44425407,12.3120471 C3.60421703,12.3280436 3.73930465,12.437352 3.78817261,12.5902168 C3.91792069,13.0007942 4.08588498,13.3980398 4.29027501,13.7775172 C4.36492379,13.9197075 4.34715114,14.093885 4.24495157,14.2191945 L3.26117666,15.4455801 C3.13142858,15.6073222 3.14475807,15.8410512 3.29139153,15.9876778 L5.02788779,17.7241741 C5.17452126,17.8725844 5.41002708,17.8859161 5.57176002,17.754389 L6.79370937,16.7706141 C6.91901429,16.669304 7.09230901,16.6515291 7.23538659,16.7252906 C7.61129225,16.9208034 8.00498877,17.0798791 8.41024251,17.2025268 C8.56309823,17.2514038 8.67239593,17.3864846 8.68841225,17.545558 L8.85637426,19.1034405 L8.85637426,19.1043292 C8.87947962,19.3113946 9.05455115,19.4678131 9.26340254,19.4678131 L11.7197685,19.4678131 C11.9277212,19.4678131 12.1019078,19.3105142 12.123225,19.1043292 L12.291187,17.5464467 L12.2920756,17.545558 C12.310738,17.3829287 12.4253796,17.2478457 12.5826671,17.2025268 C12.9923572,17.0718892 13.3887155,16.9039271 13.767283,16.7004244 C13.9103628,16.6266629 14.0836507,16.6444378 14.2089602,16.7457478 L15.4353459,17.7490881 C15.5970879,17.8797257 15.8317042,17.8672835 15.9774436,17.7188732 L17.7166016,15.982377 C17.8579024,15.834854 17.8676782,15.604674 17.7388188,15.4456029 L16.7550439,14.2236535 C16.6546211,14.0983486 16.637738,13.9250539 16.7123868,13.7819763 C16.9150068,13.4024988 17.0829688,13.0052533 17.2144892,12.5955859 C17.2633663,12.4436198 17.3966702,12.3343198 17.5557459,12.3165289 L19.1136284,12.1485669 C19.3206939,12.1272384 19.4779996,11.9530564 19.4779996,11.7451104 L19.4779996,9.28351189 C19.477111,9.07200324 19.3153703,8.89516173 19.1038685,8.87737088 L19.1038534,8.87720935 Z M10.5005437,14.1914867 C9.52209243,14.1923755 8.58363642,13.8049111 7.89129476,13.1135022 C7.19899861,12.4229805 6.80976118,11.4845245 6.80887391,10.5069833 C6.80887391,9.52853195 7.19722407,8.59007594 7.88863296,7.8986443 C8.58004185,7.20721266 9.51849786,6.81888525 10.4969719,6.81888525 C11.4745359,6.81977411 12.412992,7.20900994 13.1034908,7.9013061 C13.7948997,8.59360226 14.1823626,9.53205827 14.1814769,10.5105551 C14.1796981,11.4863446 13.7913507,12.4212288 13.1017163,13.1118414 C12.4111947,13.801453 11.4763105,14.1898259 10.50043,14.1916004 L10.5005437,14.1914867 Z" transform="rotate(9 10.5 10.5)"/>
</svg>
