<svg xmlns="http://www.w3.org/2000/svg" width="70" height="70" version="1.1" viewBox="0 0 70 70">
  <path fill="#000" fill-rule="nonzero" stroke="none" stroke-width="1" d="M2.88372093,0.953847745 C1.28700465,0.953847745 0,2.23695423 0,3.82883427 L0,33.6345383 L20.0959302,19.888509 C20.2817933,19.7593574 20.5014535,19.6723244 20.7267442,19.6414398 C21.1097384,19.5965182 21.5096023,19.7116298 21.8081395,19.9558915 L36.1142791,31.5003999 L46.7703488,24.2008091 C47.2772493,23.8582832 48.0066,23.8863574 48.4825581,24.2681916 L62,35.049391 L62,3.8284749 C62,2.23659486 60.7129953,0.953488372 59.1162791,0.953488372 L2.88372093,0.953847745 Z M36.0465116,11.0163006 C38.434593,11.0163006 40.372093,12.9479321 40.372093,15.3287804 C40.372093,17.7096286 38.434593,19.6412601 36.0465116,19.6412601 C33.6584302,19.6412601 31.7209302,17.7096286 31.7209302,15.3287804 C31.7209302,12.9479321 33.6584302,11.0163006 36.0465116,11.0163006 Z M20.8392093,22.8533388 L0,37.0931471 L0,44.0785018 C0,45.6703819 1.28700465,46.9534884 2.88372093,46.9534884 L59.1162791,46.9534884 C60.7129953,46.9534884 62,45.6703819 62,44.0785018 L62,38.7328238 L47.4912791,27.1653155 L36.8575581,34.4649063 C36.3506577,34.8074322 35.621307,34.7793579 35.1453488,34.3975238 L20.8392093,22.8533388 Z" transform="translate(4 11.047)"/>
</svg>
