<svg xmlns="http://www.w3.org/2000/svg" width="70" height="70" viewBox="0 0 70 70">
  <path d="M64.3801715,0.5 C65.1839241,0.5 65.8337987,1.14981402 65.8337987,1.95358127 L65.8337987,1.95358127 L65.8337987,42.0492774 L65.8337987,42.0492774 L65.8252481,42.1433348 C65.8223982,42.1746851 65.8195482,42.2060361 65.8138475,42.2402378 C65.7967449,42.3684933 65.7710952,42.4910503 65.722643,42.6050559 L65.722643,42.6050559 C65.671335,42.7276107 65.6029389,42.8359179 65.5231313,42.9356738 C65.5060301,42.9584749 65.4860796,42.9812761 65.4661285,43.0040772 C65.383468,43.0981346 65.2951163,43.1836363 65.189662,43.2548897 C65.1868113,43.2577396 65.1811114,43.2577396 65.1782607,43.2605903 C65.0785048,43.3289937 64.9673521,43.3774437 64.8504935,43.4173453 C64.8191447,43.425896 64.7906429,43.4344466 64.7621419,43.4429972 C64.6395849,43.4771989 64.514175,43.5 64.3802211,43.5 L64.3802211,43.5 L1.61691362,43.5 C1.48865817,43.5 1.36610117,43.4771989 1.24639706,43.4458471 C1.2178982,43.4372965 1.18654719,43.4287466 1.15804541,43.4173453 C1.05543667,43.3831473 0.958533679,43.3375443 0.867329152,43.2833914 C0.853077897,43.2748408 0.835977413,43.2691409 0.821726888,43.2605903 C0.721978321,43.1950398 0.633619375,43.1152322 0.550966184,43.0268805 C0.531015012,43.0040794 0.513913798,42.9812783 0.493963355,42.9584771 C0.428412837,42.8758239 0.368557859,42.7846194 0.320105637,42.6877164 L0.320105637,42.6877164 L0.297304505,42.6535155 L0.297304505,42.6535155 L0.291603857,42.6392642 C0.243155283,42.5281041 0.208953585,42.4112529 0.189002412,42.285843 L0.189002412,42.285843 L0.180451805,42.1917856 C0.174751887,42.1433378 0.16620128,42.0977333 0.16620128,42.0492804 L0.16620128,42.0492804 L0.16620128,1.95358127 C0.16620128,1.14982861 0.816015296,0.5 1.61978255,0.5 L1.61978255,0.5 Z M22.9249412,19.6444869 L4.79785903,40.5959909 L60.8917078,40.596239 L50.525766,30.1558744 L42.7390883,37.8542661 C42.4626291,38.1250341 42.1177374,38.2589873 41.7044641,38.2732378 C41.3197343,38.2703922 40.9492104,38.1107843 40.6784497,37.8343179 L40.6784497,37.8343179 L22.9249412,19.6444869 Z M3.07139381,3.4065212 L3.07139381,38.149609 L21.7624848,16.5487288 C22.0275616,16.2409098 22.4094605,16.0585044 22.817028,16.0471039 C23.2246174,16.0328541 23.6150895,16.192462 23.9001,16.4831782 L23.9001,16.4831782 L41.7360574,34.7612951 L49.5139795,27.071659 C50.0840442,26.5073285 51.0017515,26.5130342 51.5660813,27.0802096 L51.5660813,27.0802096 L62.9294358,38.5267426 L62.9294358,3.40716255 L3.07139381,3.4065212 Z M50.4719365,6.11422406 C54.5332554,6.11422406 57.8362578,9.41729918 57.8362578,13.4785453 C57.8362578,17.5398642 54.5331827,20.8428666 50.4719365,20.8428666 C46.4106177,20.8428666 43.1076153,17.5397915 43.1076153,13.4785453 C43.1076153,9.41722648 46.4106177,6.11422406 50.4719365,6.11422406 Z M50.4719365,9.00862261 C48.0096256,9.00862261 46.0045636,11.0136898 46.001723,13.4788361 C46.001723,15.9439825 48.0067901,17.9490497 50.4719365,17.9490497 C52.9370829,17.9490497 54.94215,15.9439825 54.94215,13.4788361 C54.94215,11.0136898 52.9370829,9.00862261 50.4719365,9.00862261 Z" transform="translate(2 13)"/>
</svg>
