<svg xmlns="http://www.w3.org/2000/svg" width="70" height="70" viewBox="0 0 70 70">
  <path d="M30.0920679,0.5 C35.1180891,0.5 39.9552022,1.80252512 44.0513097,4.03707217 C44.4241428,5.89882284 44.7969636,7.57414434 45.1674044,9.24952781 C44.2377387,9.62236137 43.6785137,10.3656238 43.4920847,11.4841368 C39.7685873,12.0433872 36.047321,12.9730292 32.6968055,14.2755543 C28.9733081,12.6002328 25.2520419,11.2977077 21.5284205,10.3680409 C21.3420039,9.25194495 20.7827665,8.31986104 19.6666717,7.76305263 C20.0395049,5.90130195 20.4123257,3.85553924 20.9691955,1.99378857 C23.76061,1.0641218 26.9248825,0.504896245 30.0892169,0.504896245 L30.0920679,0.5 Z M46.656853,5.71245564 C48.8914597,7.20134796 50.7507913,8.87673144 52.426111,10.9249113 L49.8211255,10.9249113 C49.4482923,9.80881534 48.5186017,9.06316061 47.4025689,8.87673144 C47.2161523,7.76063549 47.0297358,6.82855159 46.656915,5.71245564 L46.656853,5.71245564 Z M54.2875498,13.1572271 C57.4518223,17.9968244 59.5,23.7659645 59.5,30.0945161 C59.5,38.2848804 56.1493605,45.7296519 50.5665315,51.1260576 C53.730804,42.5656859 52.9850881,35.1209145 49.6368657,29.1648494 C50.0096989,28.605599 50.1961155,27.8623242 50.1961155,27.1166695 C50.1961155,25.8141444 49.4504615,24.6981104 48.1479378,24.1388229 C48.5207709,21.3474054 48.5207709,18.3695588 48.3343544,15.205345 C49.0800083,14.8325114 49.8232451,14.0892491 50.0096741,13.1571652 C51.3121978,12.9707484 52.8010886,13.1571652 54.2899794,13.1571652 L54.2875498,13.1572271 Z M46.656853,54.2900235 C46.2840198,54.662857 45.9111991,54.8492738 45.5407582,55.0356782 C41.6332489,54.2900235 38.0959946,52.8010692 35.1185849,50.9417356 L35.1185849,50.0120689 L35.1185849,49.2664141 C41.2607009,44.2403877 45.1682721,37.9145631 47.2166358,30.4673125 L47.7758855,30.4673125 C51.126525,36.7958641 51.499383,44.9837492 46.6597907,54.2903334 L46.656853,54.2900235 Z M42.7493437,56.7085826 C38.8418344,58.5703332 34.5589881,59.5 30.0922538,59.5 C25.9983156,59.5 22.2750041,58.7543453 18.7404147,57.265391 C22.834353,56.149295 26.5576645,54.6604027 29.7222468,52.798652 C30.2814966,53.1714856 31.0247706,53.5443068 31.7704245,53.5443068 C32.5160785,53.5443068 33.2593153,53.1714732 33.8186022,52.798652 C36.4235878,54.4739735 39.4014313,55.7764987 42.7520707,56.7061654 L42.7493437,56.7085826 Z M15.5758324,55.7789158 C12.4115599,53.9171651 9.4337164,51.498606 7.2014029,48.7072506 C8.31749768,39.9603258 12.0409951,32.7021075 17.4376431,26.9301164 C18.9265338,35.490488 22.4636642,43.3083657 28.6060281,48.8913246 C28.4196115,49.2641581 28.4196115,49.6369793 28.4196115,50.0074205 L28.4196115,50.9370873 C24.8825431,52.9852671 20.6023618,54.6605886 15.5759687,55.7766846 L15.5758324,55.7789158 Z M5.33959221,46.0998452 C2.36174872,41.446677 0.5,35.8635942 0.5,30.0947021 C0.5,22.8364837 3.10498553,16.321379 7.38510486,11.2956004 C9.61971154,11.1091836 12.2246971,11.1091836 14.8298685,11.4820172 C15.0162851,12.5981131 15.7595343,13.530197 16.8780462,13.9005763 C16.5052131,17.4376485 16.6916296,20.7856884 17.0644628,24.1368272 C11.1087758,29.9060913 7.01477559,37.3504909 5.33951783,46.0980354 L5.33959221,46.0998452 Z M9.43353047,8.87660748 C12.038516,6.45804839 15.0163595,4.40986854 18.366999,2.92091425 C17.9941658,4.40980657 17.8077492,5.89876086 17.621345,7.38765318 C16.5052502,7.57406997 15.5731673,8.31731995 15.2027885,9.24940386 C13.1546108,9.06298708 11.2952792,8.8765703 9.43353047,8.8765703 L9.43353047,8.87660748 Z M43.6786996,13.7162048 C40.8872851,14.0890383 38.0958706,14.8323007 35.3042702,15.7643846 C39.3982084,17.8125645 42.934967,20.6039819 45.9129964,23.9547489 L46.099413,23.7683321 C46.2858296,21.1633438 46.2858296,18.3719264 46.099413,15.5779678 C44.9833182,15.2051343 44.0512353,14.6483011 43.6808564,13.7162048 L43.6786996,13.7162048 Z M33.8155653,47.4042296 C39.3983944,42.7510615 43.1221397,36.9820454 44.9839504,30.0938344 C44.0542846,29.3481796 43.3086307,28.4185129 43.3086307,27.1159877 C43.3086307,26.370333 43.6814638,25.8134626 44.0542846,25.2542371 C40.8900121,21.7171649 36.9826268,18.9256855 32.5158926,16.6938655 C27.6763004,18.7420453 23.2093182,21.5334628 19.3022428,25.0683037 C20.6047665,33.6286753 23.955406,41.4465531 29.910969,47.2154453 C30.4702188,46.8426117 31.2134928,46.6561949 31.7727177,46.6561949 C32.5183717,46.6561949 33.2616085,46.8426117 33.8208954,47.4018497 L33.8155653,47.4042296 Z M19.1125909,22.2790555 C22.2768634,19.4876381 25.9976958,17.253029 29.9078701,15.3939434 C26.9300266,14.2778475 23.9521831,13.3457636 20.9744016,12.602526 C20.6015685,13.3481807 19.8583069,13.9050511 19.1126529,14.0914183 C18.9262363,16.8828357 18.9262363,19.6742532 19.1126529,22.2817825 L19.1125909,22.2790555 Z" transform="translate(5 5)"/>
</svg>
