<svg xmlns="http://www.w3.org/2000/svg" width="70" height="70" viewBox="0 0 70 70">
  <path d="M45.1379427,17 C46.4499818,17 47.4845498,18.034568 47.4845498,19.3466071 L47.4845498,19.3466071 L47.4818558,50.6560828 C47.4818558,51.965432 46.4472878,53 45.1379386,53 C43.8285893,53 42.7940213,51.965432 42.7940213,50.6560828 L42.7940213,50.6560828 L42.7940213,19.344538 C42.7940213,18.0351887 43.8285893,17.0006207 45.1379386,17.0006207 Z M55.2760192,22.381064 C56.5880583,22.381064 57.6226263,23.4157009 57.6226263,24.72774 L57.6226263,24.72774 L57.6199323,45.2790881 C57.6199323,46.5884374 56.5853643,47.6230053 55.2760151,47.6230053 C53.9666658,47.6230053 52.9320979,46.5884374 52.9320979,45.2790881 L52.9320979,45.2790881 L52.9320979,24.7249812 C52.9320979,23.4156319 53.9666658,22.381064 55.2760151,22.381064 Z M14.723709,22.381064 C16.0330583,22.381064 17.0676263,23.4157009 17.0676263,24.72774 L17.0676263,24.72774 L17.0676263,45.2790881 C17.0676263,46.5884374 16.0330583,47.6230053 14.723709,47.6230053 C13.4143598,47.6230053 12.3797918,46.5884374 12.3797918,45.2790881 L12.3797918,45.2790881 L12.3797918,24.7249812 C12.3797918,23.4156319 13.4143598,22.381064 14.723709,22.381064 Z M34.9998621,22.381064 C36.3092113,22.381064 37.3437793,23.4157009 37.3437793,24.72774 L37.3437793,24.72774 L37.3437793,45.2790881 C37.3437793,46.5884374 36.3092113,47.6230053 34.9998621,47.6230053 C33.6905128,47.6230053 32.6559448,46.5884374 32.6559448,45.2790881 L32.6559448,45.2790881 L32.6559448,24.7249812 C32.6559448,23.4156319 33.6905128,22.381064 34.9998621,22.381064 Z M24.8617855,27.7615072 C26.1711348,27.7615072 27.2057028,28.7960752 27.2057028,30.1054244 L27.2057028,30.1054244 L27.2057028,39.8317428 C27.2057028,41.1410921 26.1711348,42.1756601 24.8617855,42.1756601 C23.5524363,42.1756601 22.5178683,41.1410921 22.5178683,39.8317428 L22.5178683,39.8317428 L22.5178683,30.1054244 C22.5178683,28.7960752 23.5524363,27.7615072 24.8617855,27.7615072 Z M65.4175401,27.7615072 C66.7268894,27.7615072 67.7614574,28.7960752 67.7614574,30.1054244 L67.7614574,30.1054244 L67.7614574,39.8317428 C67.7614574,41.1410921 66.7268894,42.1756601 65.4175401,42.1756601 C64.1081909,42.1756601 63.0736229,41.1410921 63.0736229,39.8317428 L63.0736229,39.8317428 L63.0736229,30.1054244 C63.0736229,28.7960752 64.1081909,27.7615072 65.4175401,27.7615072 Z M4.582464,27.7615072 C5.89450311,27.7615072 6.92907109,28.7960752 6.92907109,30.1054244 L6.92907109,30.1054244 L6.92637708,39.8317428 C6.92637708,41.1410921 5.8918091,42.1756601 4.58245986,42.1756601 C3.27311062,42.1756601 2.23854264,41.1410921 2.23854264,39.8317428 L2.23854264,39.8317428 L2.23854264,30.1054244 C2.23854264,28.7960752 3.27311062,27.7615072 4.58245986,27.7615072 Z"/>
</svg>
