<svg xmlns="http://www.w3.org/2000/svg" width="70" height="70" version="1.1" viewBox="0 0 70 70">
  <path fill="#000" fill-rule="nonzero" stroke="none" stroke-width="1" d="M54,41.3493156 L54,40.9400556 L54,40.8703948 C54,40.8703948 53.9956075,0.90003804 53.9956075,0.395136521 C53.9956075,-0.105551912 53.5123936,0.0120020904 53.5123936,0.0120020904 L16.9415791,7.48744246 C16.9415791,7.48744246 16.4276197,7.57016383 16.4276197,8.1056849 C16.4276197,8.64120596 16.4407973,39.4169248 16.4407973,39.4169248 C16.4407973,39.4212784 16.4364048,39.4256319 16.4364048,39.4299854 C16.4364048,39.7957102 16.2738716,39.9698622 15.5885849,39.8697178 L15.5885849,39.8784249 C13.1286016,39.4561021 10.2776074,39.800057 7.53648319,41.0409244 C1.71596591,43.6749945 -1.38535612,49.3044793 0.600173712,53.6188795 C2.59008934,57.9291558 8.91576069,59.2918326 14.7314423,56.6578739 C19.2647839,54.6028244 22.137707,50.7323586 22.2475769,47.0839157 L22.2607557,47.0839157 L22.2607557,46.6746557 L22.2607557,46.6049949 L22.2607557,17.8372103 C22.2607557,17.4584338 22.5946162,17.3626474 22.5946162,17.3626474 L47.782596,12.2687149 C47.782596,12.2687149 48.1779477,12.1337513 48.1779477,12.6083142 L48.1779477,33.940783 C48.1779477,33.9494912 48.1691615,33.9538447 48.1691615,33.9625518 C48.1691615,34.1976598 47.9802685,34.2760254 47.6903447,34.2281322 C47.6903447,34.2281322 47.6991309,34.2411927 47.6991309,34.2455474 C45.155705,33.7143865 42.1553688,34.0191553 39.2692883,35.3252899 C33.4531568,37.95936 30.3474489,43.5888447 32.3329788,47.8987866 C34.3185086,52.2090629 40.6485658,53.5717397 46.4642474,50.9377811 C50.9932032,48.8871899 53.8705121,45.0166126 53.980382,41.3638229 L53.9979533,41.3551147 L54,41.3493156 Z" transform="translate(8 6)"/>
</svg>
