<svg xmlns="http://www.w3.org/2000/svg" width="70" height="70" viewBox="0 0 70 70">
  <g transform="translate(4 4)">
    <path d="M31,0.93 C47.5385,0.93 61.07,14.4615 61.07,31 C61.07,47.5385 47.5385,61.07 31,61.07 C14.4615,61.07 0.93,47.5385 0.93,31 C0.93,14.4615 14.4615,0.93 31,0.93 Z M31,5.16584 C16.79084,5.16584 5.16584,16.79084 5.16584,31 C5.16584,45.20916 16.79084,56.83416 31,56.83416 C45.20916,56.83416 56.83416,45.20916 56.83416,31 C56.83416,16.79084 45.20916,5.16584 31,5.16584 Z"/>
    <path d="M31 36.2033098C29.5456497 36.2033098 28.5753071 35.1691498 28.5753071 33.6191498L28.5753071 15.5349898C28.5753071 13.9849898 29.5456497 12.9508298 31 12.9508298 32.4543503 12.9508298 33.4246929 13.9849898 33.4246929 15.5349898L33.4246929 33.6191498C33.4246929 34.9099898 32.4543503 36.2033098 31 36.2033098zM31 41.075C32.55 41.075 33.84084 42.36584 33.84084 43.91584 33.84084 45.46584 32.55 46.75668 31 46.75668 29.45 46.75668 28.15916 45.46584 28.15916 43.91584 28.15916 42.36584 29.45 41.075 31 41.075z"/>
  </g>
</svg>
