<svg xmlns="http://www.w3.org/2000/svg" width="70" height="70" version="1.1" viewBox="0 0 70 70">
  <path fill="#000" fill-rule="nonzero" stroke="none" stroke-width="1" d="M30,0 C37.9564654,0 45.5864212,3.16113084 51.2112412,8.78875876 C56.8388692,14.4139388 60,22.0435346 60,30 C60,37.9564654 56.8388692,45.5864212 51.2112412,51.2112412 C45.5860612,56.8388692 37.9564654,60 30,60 C22.0435346,60 14.4135788,56.8388692 8.78875876,51.2112412 C3.16113084,45.5860612 0,37.9564654 0,30 C0,22.0435346 3.16113084,14.4135788 8.78875876,8.78875876 C14.4139388,3.16113084 22.0435346,0 30,0 Z M31.5313864,41.3059534 C30.0350011,40.6844352 28.3163135,41.0281528 27.1704921,42.1705003 C26.0281728,43.3162255 25.6844352,45.0349021 26.3059396,46.5313667 C26.9239596,48.0242759 28.3822131,49 30.0001936,49 C31.062605,49 32.0799514,48.5799304 32.8299129,47.8299204 C33.5798744,47.0799104 34,46.0626238 34,45.0001837 C34,43.3822136 33.0243941,41.9239783 31.5313864,41.3059534 Z M30,10 C27.7916444,10 26,11.4973029 26,13.3428571 L26,13.3428571 L26,32.6571429 C26,34.5026971 27.7916444,36 30,36 C32.2083556,36 34,34.5026971 34,32.6571429 L34,32.6571429 L34,13.3428571 C34,11.4973029 32.2083556,10 30,10 Z" transform="translate(5 5)"/>
</svg>
