<svg xmlns="http://www.w3.org/2000/svg" width="21" height="21" viewBox="0 0 21 21">
  <path d="M6.39981401,3.309457 L17.3835636,3.309457 C18.2026952,3.309457 18.8647012,3.97196259 18.8647012,4.79059454 L18.8647012,15.7743442 C18.8647012,16.5923515 18.2023208,17.2554817 17.3835636,17.2554817 C16.565681,17.2554817 15.9034257,16.5922265 15.9034257,15.7743442 L15.9034257,8.36474968 L7.01202624,17.2561491 C6.4327963,17.8352961 5.4970407,17.8353345 4.91800907,17.2563029 C4.33884286,16.6770537 4.33884286,15.7412982 4.91800907,15.1621319 L13.8094085,6.27073251 L6.39981401,6.27073251 C5.58143229,6.27073251 4.91867647,5.60797669 4.91867647,4.79059454 C4.91867647,3.97233773 5.58130727,3.309457 6.39981401,3.309457 Z" transform="rotate(8 11.674 10.5)"/>
</svg>
