<svg xmlns="http://www.w3.org/2000/svg" width="70" height="70" version="1.1" viewBox="0 0 70 70">
  <path fill="#000" fill-rule="nonzero" stroke="none" stroke-width="1" d="M5.9733166,26.4984496 L13.1535255,29.4900667 C12.3436633,31.5436228 11.6981748,33.660326 11.2219491,35.8184636 L10.9487706,37.0627414 L21.2425489,47.4157548 L22.4803025,47.1484279 L22.4803025,47.1459972 C24.6245869,46.6696752 26.7302535,46.0207968 28.7730421,45.2066658 L31.7489732,52.4247213 L31.7513911,52.4222913 C31.8094108,52.5681082 31.9375369,52.6750352 32.0898425,52.7041948 C32.2445617,52.7333576 32.4017007,52.684753 32.5104869,52.5729609 L37.009412,48.0503221 L37.0118299,48.0503221 C38.4961441,46.5581842 39.2818701,44.5022018 39.1778988,42.395204 L39.0159264,39.4886333 C47.3466273,33.3037016 55.773873,22.4600695 58.0705249,3.53584849 C58.2034844,2.57346183 57.8819593,1.60379614 57.2002603,0.916083805 C56.5185056,0.228309253 55.5563997,-0.0997445882 54.5990591,0.026611822 C35.7790149,2.35235366 24.9845653,10.8337866 18.8347863,19.1816464 L15.9506965,19.0334031 C13.85716,18.9191846 11.8143714,19.696852 10.32523,21.1792846 L5.82630489,25.7019233 C5.69817882,25.8112829 5.64015912,25.978968 5.66916587,26.1442267 C5.70059306,26.3094793 5.81663184,26.4431458 5.97377086,26.4990388 L5.9733166,26.4984496 Z M34.8383506,15.4722819 C36.4338769,13.8756246 38.8271974,13.4017414 40.9062522,14.2693141 C42.985307,15.1368868 44.3391001,17.1758849 44.3391001,19.4384174 C44.3391001,21.7033763 42.985307,23.7423743 40.9062522,24.609947 C38.8271974,25.4775197 36.4338769,25.0036427 34.8383506,23.4045529 C33.7891687,22.3546935 33.1993172,20.928129 33.1993172,19.4384174 C33.1993172,17.9511321 33.7891873,16.5245676 34.8383506,15.4722819 Z M4.63159165,48.2415819 C3.43975866,47.8211529 2.16091159,47.7190848 0.918330696,47.9426629 C0.693505123,47.9912675 0.459006505,47.920791 0.299453871,47.7555359 C0.0988016271,47.5562586 0.0432017331,47.2500481 0.161654757,46.989994 C1.48159525,44.1417799 4.97725911,38.4113208 11.3088641,43.0408429 C11.3765569,43.1015985 11.4128169,43.1866599 11.4128169,43.2765776 C11.4128169,43.3664953 11.3765544,43.4539867 11.3088641,43.5123122 C9.59005752,44.8732411 8.61817336,46.9753862 8.69070572,49.1747716 C8.70037567,49.4396659 8.91069786,49.6510936 9.17420324,49.6608176 C11.3499266,49.7483028 13.4410495,48.7932449 14.8045589,47.0847893 C14.864996,47.0094545 14.9544447,46.9681383 15.0487244,46.9681383 C15.1454239,46.9681383 15.2348702,47.009452 15.2953097,47.0847893 C16.1752906,48.1370751 18.5927473,51.5709707 15.9141865,54.885789 C14.744138,56.3001595 13.0663629,57.1944842 11.2459986,57.3743446 C8.64721106,57.6538218 3.84608842,58.506824 1.88301114,60.7596512 C1.7234585,60.9492107 1.46961998,61.0366958 1.22786813,60.9856618 C0.983702655,60.932197 0.787883839,60.7499271 0.720197281,60.5093398 C0.0263744723,58.1325826 -1.04941911,52.8203252 4.63168448,48.2413829 L4.63159165,48.2415819 Z" transform="translate(5.9 5)"/>
</svg>
