<svg xmlns="http://www.w3.org/2000/svg" width="21" height="21" viewBox="0 0 21 21">
  <path d="M10.334311,16.5501585 C10.644806,16.5501585 10.9018564,16.7789821 10.9460268,17.0771938 L10.9527321,17.1685795 L10.9527321,18.1375817 C10.9527321,18.4480767 10.7239085,18.7051271 10.4256968,18.7492974 L10.334311,18.7560027 L9.87706216,18.7560027 C9.56656714,18.7560027 9.30951674,18.5271791 9.26534637,18.2289674 L9.2586411,18.1375817 L9.2586411,17.1685795 C9.2586411,16.8580845 9.48746469,16.6010341 9.78567642,16.5568637 L9.87706216,16.5501585 L10.334311,16.5501585 Z M10.1175327,2.46323053 C12.9627344,2.46323053 15.2718349,4.65444908 15.2718349,7.37063422 C15.2718349,8.43467303 14.8507936,9.22519043 13.7300294,10.3388262 L12.7387263,11.2869007 C11.5846875,12.4200762 11.1173748,13.2030431 11.024996,14.228943 L11.0119926,14.4242909 L11.0072243,14.6429176 L11.0072243,14.8917428 C11.0072243,15.1540783 10.8427525,15.3825204 10.5878225,15.4738137 L10.488128,15.5014181 L10.3888033,15.5101638 L9.84626219,15.5101638 C9.58392667,15.5101638 9.35548456,15.3456921 9.26419129,15.090762 L9.23658684,14.9910675 L9.22784114,14.8917428 L9.22784114,14.6429176 C9.22784114,13.1817041 9.74197956,12.0853904 11.0386142,10.6955781 L11.2620114,10.4611122 L11.4972818,10.2232538 L12.3497748,9.37820292 L12.6096397,9.10300745 C13.2360438,8.41416585 13.4924517,7.90711109 13.4924517,7.37063422 C13.4924517,5.61056898 11.9977306,4.19772307 10.1175327,4.19772307 C8.52305198,4.19772307 7.16477821,5.24277907 6.82652263,6.67120018 L6.79087821,6.84440852 L6.75805442,7.05681786 L6.729217,7.15271365 C6.68587373,7.25153654 6.60958362,7.33145517 6.49619143,7.38384655 L6.40412573,7.41784399 L6.30488803,7.42984899 L5.37783465,7.42728972 C5.12341295,7.4004341 4.93893419,7.17241377 4.96578982,6.91799207 C5.23249813,4.39128168 7.46215497,2.46323053 10.1175327,2.46323053 Z"/>
</svg>
