<svg xmlns="http://www.w3.org/2000/svg" width="21" height="21" viewBox="0 0 21 21">
  <path stroke="#000" stroke-width=".2" d="M5.33431102,14.3001585 C5.53778435,14.3001585 5.70273207,14.4651062 5.70273207,14.6685795 L5.70273207,15.6375817 C5.70273207,15.841055 5.53778435,16.0060027 5.33431102,16.0060027 L4.87706216,16.0060027 C4.67358883,16.0060027 4.5086411,15.841055 4.5086411,15.6375817 L4.5086411,14.6685795 C4.5086411,14.4651062 4.67358883,14.3001585 4.87706216,14.3001585 L5.33431102,14.3001585 Z M5.11753273,0.21323053 C7.825679,0.21323053 10.0218349,2.2937993 10.0218349,4.87063422 C10.0218349,5.95940286 9.52661205,6.73277362 8.35196381,7.85831627 C8.29409325,7.91376758 8.1621559,8.03852824 8.0445278,8.14957612 L8.0445278,8.14957612 L7.56356935,8.60851894 C6.27370269,9.87506671 5.75722432,10.7735508 5.75722432,12.1429176 L5.75722432,12.1429176 L5.75722432,12.3917428 C5.75722432,12.5952161 5.5922766,12.7601638 5.38880327,12.7601638 L5.38880327,12.7601638 L4.84626219,12.7601638 C4.64278886,12.7601638 4.47784114,12.5952161 4.47784114,12.3917428 L4.47784114,12.3917428 L4.47784114,12.1429176 C4.47784114,10.5313307 5.15134984,9.41472418 6.67299857,7.90108413 L6.67299857,7.90108413 L7.4376057,7.14556465 C7.53225609,7.04988992 7.61529874,6.96394131 7.69454276,6.87948387 L7.69454276,6.87948387 L7.7946001,6.77120277 C8.44405251,6.0570155 8.74245174,5.49308338 8.74245174,4.87063422 C8.74245174,2.97097472 7.13457501,1.44772307 5.11753273,1.44772307 C3.26166314,1.44772307 1.71900793,2.76693991 1.51674979,4.49145675 L1.51674979,4.49145675 L1.50026985,4.55229848 C1.46705603,4.62802619 1.39149516,4.67984901 1.30497085,4.67984901 L1.30497085,4.67984901 L0.415253913,4.67955429 L0.415253913,4.67955429 L0.404077745,4.67867094 C0.286964405,4.66630897 0.202046636,4.5613485 0.2144086,4.44423516 C0.466944482,2.05178996 2.58284833,0.21323053 5.11753273,0.21323053 Z" transform="translate(5 2.5)"/>
</svg>
