<svg xmlns="http://www.w3.org/2000/svg" width="21" height="21" viewBox="0 0 21 21">
  <g fill="none" fill-rule="evenodd">
    <path fill="#000" fill-rule="nonzero" d="M6.22774321,8.8586783 C6.61437215,8.15546089 7.31758957,7.39936152 8.51319983,6.67905591 C8.84694681,6.48538984 9.05847461,6.13378113 9.05847461,5.76501391 C9.05847461,5.00891454 8.28521674,4.48150148 7.58199932,4.79808996 C5.5423172,5.69428782 2.14929315,7.92688006 2.14929315,12.5507104 C2.14929315,14.6253776 3.81943452,16.295519 5.89410171,16.295519 C7.9687689,16.295519 9.62097823,14.6253776 9.62097823,12.5686424 C9.62097823,10.6168625 8.12664121,9.0346233 6.22777838,8.85881895 L6.22774321,8.8586783 Z" transform="rotate(180 5.885 10.5)"/>
    <path fill="#000" fill-rule="nonzero" d="M15.4404188,8.8586783 C15.8270478,8.15546089 16.5302652,7.39936152 17.7258754,6.67905591 C18.0596224,6.48538984 18.2711502,6.13378113 18.2711502,5.76501391 C18.2711502,5.00891454 17.4978923,4.48150148 16.7946749,4.79808996 C14.7722216,5.69428782 11.3790218,7.92688006 11.3790218,12.5507104 C11.3790218,14.6253776 13.0491631,16.295519 15.1058983,16.295519 C17.1626334,16.295519 18.8507069,14.6253776 18.8507069,12.5507104 C18.8507069,10.6168625 17.3563698,9.0346233 15.440454,8.85881895 L15.4404188,8.8586783 Z" transform="rotate(180 15.115 10.5)"/>
  </g>
</svg>
