<svg xmlns="http://www.w3.org/2000/svg" width="21" height="21" viewBox="0 0 21 21">
  <path d="M15.4574718 8.8586783C15.8441008 8.15546089 16.5473182 7.39936152 17.7429285 6.67905591 18.0766754 6.48538984 18.2882032 6.13378113 18.2882032 5.76501391 18.2882032 5.00891454 17.5149454 4.48150148 16.8117279 4.79808996 14.7720458 5.69428782 11.3790218 7.92688006 11.3790218 12.5507104 11.3790218 14.6253776 13.0491631 16.295519 15.1238303 16.295519 17.1984975 16.295519 18.8507069 14.6253776 18.8507069 12.5686424 18.8507069 10.6168625 17.3563698 9.0346233 15.457507 8.85881895L15.4574718 8.8586783zM6.21069019 8.8586783C6.59731913 8.15546089 7.30053655 7.39936152 8.4961468 6.67905591 8.82989379 6.48538984 9.04142159 6.13378113 9.04142159 5.76501391 9.04142159 5.00891454 8.26816372 4.48150148 7.5649463 4.79808996 5.542493 5.69428782 2.14929315 7.92688006 2.14929315 12.5507104 2.14929315 14.6253776 3.81943452 16.295519 5.87616967 16.295519 7.93290481 16.295519 9.62097823 14.6253776 9.62097823 12.5507104 9.62097823 10.6168625 8.12664121 9.0346233 6.21072535 8.85881895L6.21069019 8.8586783z"/>
</svg>
