<svg xmlns="http://www.w3.org/2000/svg" width="70" height="70" viewBox="0 0 70 70">
  <g fill="none" fill-rule="evenodd">
    <path fill="#000" fill-rule="nonzero" d="M23.8982806 29.5298765C24.4319742 28.5591715 25.4026792 27.5154695 27.0530719 26.5211763 27.5137685 26.2538442 27.8057566 25.7684917 27.8057566 25.2594539 27.8057566 24.2157519 26.7383693 23.4877231 25.7676643 23.9247345 22.9521344 25.1618253 18.2684827 28.2436439 18.2684827 34.626272 18.2684827 37.4900945 20.5739071 39.795519 23.4377296 39.795519 26.3015521 39.795519 28.5822235 37.4900945 28.5822235 34.651025 28.5822235 31.9568332 26.5194754 29.7727469 23.8983291 29.5300707L23.8982806 29.5298765zM11.1342376 29.5298765C11.6679312 28.5591715 12.6386362 27.5154695 14.2890289 26.5211763 14.7497255 26.2538442 15.0417136 25.7684917 15.0417136 25.2594539 15.0417136 24.2157519 13.9743263 23.4877231 13.0036213 23.9247345 10.2118737 25.1618253 5.52797929 28.2436439 5.52797929 34.626272 5.52797929 37.4900945 7.83340371 39.795519 10.6724732 39.795519 13.5115427 39.795519 15.8417201 37.4900945 15.8417201 34.626272 15.8417201 31.9568332 13.778972 29.7727469 11.1342861 29.5300707L11.1342376 29.5298765z"/>
    <path fill="#000" fill-rule="nonzero" d="M47.0475744,29.5298765 C47.581268,28.5591715 48.551973,27.5154695 50.2023657,26.5211763 C50.6630623,26.2538442 50.9550504,25.7684917 50.9550504,25.2594539 C50.9550504,24.2157519 49.8876631,23.4877231 48.9169581,23.9247345 C46.1014282,25.1618253 41.4177765,28.2436439 41.4177765,34.626272 C41.4177765,37.4900945 43.7232009,39.795519 46.5870234,39.795519 C49.4508459,39.795519 51.7315173,37.4900945 51.7315173,34.651025 C51.7315173,31.9568332 49.6687691,29.7727469 47.0476229,29.5300707 L47.0475744,29.5298765 Z" transform="rotate(180 46.575 31.796)"/>
    <path fill="#000" fill-rule="nonzero" d="M59.7645382,29.5298765 C60.2982318,28.5591715 61.2689368,27.5154695 62.9193295,26.5211763 C63.3800261,26.2538442 63.6720142,25.7684917 63.6720142,25.2594539 C63.6720142,24.2157519 62.6046269,23.4877231 61.6339219,23.9247345 C58.8421743,25.1618253 54.1582799,28.2436439 54.1582799,34.626272 C54.1582799,37.4900945 56.4637043,39.795519 59.3027738,39.795519 C62.1418433,39.795519 64.4720207,37.4900945 64.4720207,34.626272 C64.4720207,31.9568332 62.4092725,29.7727469 59.7645867,29.5300707 L59.7645382,29.5298765 Z" transform="rotate(180 59.315 31.796)"/>
  </g>
</svg>
