<svg xmlns="http://www.w3.org/2000/svg" width="70" height="70" viewBox="0 0 70 70">
  <g fill="none" fill-rule="evenodd">
    <path fill="#000" fill-rule="nonzero" d="M24.564606 32.4023731C25.1765017 31.2894307 26.2894441 30.092795 28.1816688 28.9528081 28.7098712 28.6463038 29.0446443 28.0898326 29.0446443 27.5062056 29.0446443 26.30957 27.8208528 25.4748632 26.7079105 25.9759098 23.479821 27.3942714 18.109874 30.9276688 18.109874 38.2455432 18.109874 41.5290015 20.7531122 44.1722397 24.0365705 44.1722397 27.3200288 44.1722397 29.9348869 41.5290015 29.9348869 38.2739233 29.9348869 35.1849517 27.5698843 32.6808313 24.5646616 32.4025957L24.564606 32.4023731zM9.93024826 32.4023731C10.542144 31.2894307 11.6550864 30.092795 13.547311 28.9528081 14.0755135 28.6463038 14.4102866 28.0898326 14.4102866 27.5062056 14.4102866 26.30957 13.1864951 25.4748632 12.0735527 25.9759098 8.8727304 27.3942714 3.50250513 30.9276688 3.50250513 38.2455432 3.50250513 41.5290015 6.1457433 44.1722397 9.40082156 44.1722397 12.6558998 44.1722397 15.327518 41.5290015 15.327518 38.2455432 15.327518 35.1849517 12.9625154 32.6808313 9.93030391 32.4025957L9.93024826 32.4023731z"/>
    <path fill="#000" fill-rule="nonzero" d="M50.1369078,28.9528081 C50.6651103,28.6463038 50.9998834,28.0898326 50.9998834,27.5062056 C50.9998834,26.30957 49.7760919,25.4748632 48.6631495,25.9759098 C45.4350601,27.3942714 40.0651131,30.9276688 40.0651131,38.2455432 C40.0651131,41.5290015 42.7083513,44.1722397 45.9918096,44.1722397 C49.2752678,44.1722397 51.890126,41.5290015 51.890126,38.2739233 C51.890126,35.1849517 49.5251234,32.6808313 46.5199007,32.4025957 C47.1317408,31.2894307 48.2446832,30.092795 50.1369078,28.9528081 Z" transform="rotate(180 45.978 35)"/>
    <path fill="#000" fill-rule="nonzero" d="M61.1002251,32.4023731 C61.7121208,31.2894307 62.8250632,30.092795 64.7172879,28.9528081 C65.2454903,28.6463038 65.5802634,28.0898326 65.5802634,27.5062056 C65.5802634,26.30957 64.3564719,25.4748632 63.2435296,25.9759098 C60.0427072,27.3942714 54.672482,30.9276688 54.672482,38.2455432 C54.672482,41.5290015 57.3157201,44.1722397 60.5707984,44.1722397 C63.8258767,44.1722397 66.4974949,41.5290015 66.4974949,38.2455432 C66.4974949,35.1849517 64.1324923,32.6808313 61.1002807,32.4025957 L61.1002251,32.4023731 Z" transform="rotate(180 60.585 35)"/>
  </g>
</svg>
