<svg xmlns="http://www.w3.org/2000/svg" width="21" height="21" viewBox="0 0 21 21">
  <path fill="#222" d="M9.10715406,3.16184437 C9.63814571,3.16184437 10.1578861,3.20997391 10.6622505,3.30210886 L10.662882,5.01454231 C10.1628348,4.89968462 9.64208936,4.83900195 9.10715406,4.83900195 C5.28547677,4.83900195 2.18804044,7.93620891 2.18804044,11.7576997 C2.18804044,15.5792838 5.28557,18.6768134 9.10715406,18.6768134 C12.9282032,18.6768134 16.0262677,15.5789802 16.0262677,11.7576997 C16.0262677,11.3184115 15.9853382,10.8886939 15.9070841,10.4721514 L17.607986,10.4723317 C17.6708466,10.89164 17.7034253,11.3208616 17.7034253,11.7576997 C17.7034253,16.5052768 13.8544437,20.3539709 9.10715406,20.3539709 C4.35930144,20.3539709 0.510882857,16.5055524 0.510882857,11.7576997 C0.510882857,7.00991254 4.35923601,3.16184437 9.10715406,3.16184437 Z M13.7183369,12.7637985 C14.2263733,13.2222259 13.491273,17.1735844 9.10595862,17.1735844 C4.7206442,17.1735844 4.26867824,13.2970177 4.73064876,12.7637985 C5.19261928,12.2305794 13.2103004,12.3053712 13.7183369,12.7637985 Z M6.40731566,8.13793965 C7.30463832,8.13793965 8.03206207,8.86536339 8.03206207,9.76268606 C8.03206207,10.6600087 7.30463832,11.3874325 6.40731566,11.3874325 C5.50999299,11.3874325 4.78256925,10.6600087 4.78256925,9.76268606 C4.78256925,8.86536339 5.50999299,8.13793965 6.40731566,8.13793965 Z M11.3339661,8.13793965 C12.2312887,8.13793965 12.9587125,8.86536339 12.9587125,9.76268606 C12.9587125,10.6600087 12.2312887,11.3874325 11.3339661,11.3874325 C10.4366434,11.3874325 9.70921965,10.6600087 9.70921965,9.76268606 C9.70921965,8.86536339 10.4366434,8.13793965 11.3339661,8.13793965 Z M17.250125,0.646029053 L17.2500797,3.84227212 L20.4891171,3.84231222 L20.4891171,6.31125953 L17.2500797,6.31125773 L17.250125,9.42450838 L14.7811776,9.42450838 L14.7810941,6.31125773 L11.7106378,6.31125953 L11.7106378,3.84231222 L14.7810941,3.84227212 L14.7811776,0.646029053 L17.250125,0.646029053 Z"/>
</svg>
