<svg xmlns="http://www.w3.org/2000/svg" width="21" height="21" viewBox="0 0 21 21">
  <path fill="#222" d="M10.9165793,3.53201646 L10.9165793,5.28901646 L2.29800575,5.28941719 L2.29800575,15.6209368 L4.93272243,15.6211283 L4.93258327,17.0481623 L6.85158949,15.6211283 L15.4925683,15.6209368 L15.4915793,9.73301646 L17.2495793,9.73301646 L17.2501647,16.1093024 C17.2501647,16.7664793 16.7507142,17.3070034 16.110686,17.3720018 L15.9809123,17.3785548 L7.43340111,17.3783632 L3.17529598,20.5452373 L3.17515682,17.3783632 L1.80983173,17.3785548 C1.16694122,17.3785548 0.635686883,16.9005835 0.552041825,16.280614 L0.541380484,16.1548264 L0.540579292,4.80140118 C0.540579292,4.14422421 1.04002979,3.60370016 1.68005804,3.53870175 L1.80983173,3.53214874 L10.9165793,3.53201646 Z M13.9059359,11.6037767 L13.9059359,13.3612032 L3.72574258,13.3612032 L3.72574258,11.6037767 L13.9059359,11.6037767 Z M12.2394974,7.60774307 L12.2394974,9.36516952 L3.72574258,9.36516952 L3.72574258,7.60774307 L12.2394974,7.60774307 Z M17.4427478,0.454762741 L17.4427006,3.33557524 L20.4594207,3.33562921 L20.4594207,5.56093503 L17.4427006,5.56086767 L17.4427478,8.36696119 L15.1432651,8.36696119 L15.1432057,5.56086767 L12.2834823,5.56093503 L12.2834823,3.33562921 L15.1432057,3.33557524 L15.1432651,0.454762741 L17.4427478,0.454762741 Z"/>
</svg>
