<svg xmlns="http://www.w3.org/2000/svg" width="21" height="21" viewBox="0 0 21 21">
  <path fill="#222" d="M13.4417581,3.76092485 C15.1392214,4.44674451 16.4710692,5.74627615 17.2073103,7.38253383 L17.2209537,7.41773548 L17.779685,6.10328705 C17.9277555,5.75365295 18.3099416,5.57473383 18.6664008,5.67176235 L18.7627839,5.70514517 C19.1124179,5.85321592 19.291337,6.23540198 19.1943085,6.59186115 L19.1609254,6.68824421 L17.8926827,9.68290548 C17.7452415,10.0310529 17.3654715,10.2101793 17.0099196,10.115487 L16.9137441,10.0827942 L13.7672005,8.77251887 C13.3848235,8.61326868 13.2039245,8.17420081 13.3631417,7.79180983 C13.5091224,7.44129818 13.890225,7.26008284 14.2472615,7.35496492 L14.3438437,7.38776748 L15.8459892,8.01223838 C15.8436967,8.00742589 15.8415012,8.00268837 15.8394046,7.99802879 C15.2602995,6.71099775 14.2151319,5.69119024 12.8798482,5.15170063 C10.0591068,4.01204711 6.84857235,5.37483813 5.70891883,8.19557957 C4.56926531,11.016321 5.93205633,14.2268555 8.75279777,15.366509 C10.6920917,16.1500346 12.8770373,15.7648528 14.4295661,14.4187723 C14.7425273,14.1474272 15.2162012,14.1811638 15.4875462,14.494125 C15.7588913,14.8070863 15.7251547,15.2807601 15.4121935,15.5521052 C13.4380349,17.2637491 10.6576136,17.7539066 8.19088788,16.7572848 C4.60204219,15.307297 2.86815527,11.2225154 4.31814305,7.63366968 C5.76813083,4.04482399 9.85291243,2.31093707 13.4417581,3.76092485 Z"/>
</svg>
