<svg xmlns="http://www.w3.org/2000/svg" width="21" height="21" viewBox="0 0 21 21">
  <path fill="#222" d="M14.3343464,0.903103784 C13.8905807,0.936169142 13.5324248,1.26918194 13.4753492,1.71538538 L13.467855,1.83262564 L13.4778078,2.6491836 L13.51,4.232 L13.2457017,4.01805979 C12.367447,3.33464046 11.3600115,2.83673234 10.2928498,2.56253111 C9.0349353,2.23905467 7.70354294,2.22261147 6.43830468,2.51436212 L6.15224635,2.5859409 L5.83336882,2.67919944 C4.55943769,3.08165057 3.39699238,3.79827907 2.46568141,4.75413577 C1.4556253,5.78463339 0.735020306,7.07986204 0.394722639,8.47778643 C0.0644040805,9.83173756 0.0891873898,11.2673138 0.466160999,12.6081699 C0.857048832,13.9987266 1.62595157,15.2732658 2.67631565,16.2725814 C3.71982843,17.2670271 5.02119143,17.9714326 6.41744665,18.2966286 C7.77675011,18.6129954 9.21223519,18.5733827 10.5480445,18.1823987 C11.9566443,17.7685684 13.2405264,16.9684869 14.2325708,15.8865852 C15.3458234,14.6730103 16.0679713,13.1387952 16.2875556,11.5182806 C16.3409123,11.1242461 16.3666886,10.7322537 16.3648843,10.3403179 C16.360926,9.87113479 15.9909111,9.52241134 15.5362584,9.52241134 C15.0780159,9.52241134 14.706977,9.87687214 14.7106314,10.3483132 C14.7192211,11.6592211 14.3323741,12.9454023 13.6054564,14.0205353 C12.9234897,15.0290694 11.9501923,15.836857 10.8261555,16.3276771 C9.8225431,16.7655118 8.68859697,16.9362856 7.57206786,16.8185693 C6.45733009,16.7016697 5.3743121,16.281689 4.45536506,15.6105216 C3.52322275,14.9305591 2.77689059,13.9889525 2.32549222,12.9236789 C1.89267456,11.9058399 1.73164048,10.7660757 1.86122028,9.64300667 C1.98801083,8.53566113 2.41899757,7.45760693 3.09793867,6.54772118 C3.79001713,5.61861693 4.74267056,4.87776068 5.80129401,4.44582535 C6.84100956,4.02070346 7.98057033,3.87066418 9.10025545,4.01127335 C10.2072022,4.15176349 11.2837446,4.596071 12.1849287,5.28402482 L12.3398793,5.40641501 L12.4183113,5.47190888 L12.573,5.609 L9.78753489,5.71666449 L9.66331712,5.72917308 C9.18434429,5.81557898 8.88353089,6.22325326 8.90374203,6.68726068 C8.92598499,7.19791457 9.32512826,7.59991189 9.84924008,7.58302575 L11.1789072,7.50466281 L13.9611736,7.36782586 L14.4937667,7.35123176 L14.6174393,7.33777528 C15.0806163,7.24862969 15.3919695,6.84646964 15.3881354,6.39567894 L15.310866,2.05314967 L15.31069,1.81396138 L15.3022201,1.69401107 C15.2303315,1.19383488 14.8137647,0.867381919 14.3343464,0.903103784 Z" transform="translate(2 .5)"/>
</svg>
