<svg xmlns="http://www.w3.org/2000/svg" width="70" height="70" viewBox="0 0 70 70">
  <path d="M1.33177377,0.216464355 L1.39727034,0.218510992 L60.0822018,0.218510992 C60.8545165,0.218510992 61.4794621,0.843435649 61.4794621,1.61577127 L61.4794621,1.61577127 L61.4794621,39.3851137 C61.4794621,40.1574284 60.8545375,40.782374 60.0822018,40.782374 L60.0822018,40.782374 L37.9469899,40.7814644 L37.9773011,40.8121353 L37.9773011,40.8339675 C37.9991333,40.863987 38.0209655,40.8912776 38.0427977,40.9212963 L38.0427977,40.9212963 L38.0427977,40.9431285 C38.0673588,40.9786049 38.089191,41.0140835 38.1082943,41.0522894 L38.1082943,41.0522894 L38.1082943,41.0741216 C38.1246688,41.1095981 38.1383137,41.1478055 38.1519587,41.1832826 L38.1519587,41.1832826 L38.1519587,41.2051148 C38.209268,41.3961482 38.222913,41.5980942 38.1956231,41.794584 C38.2174553,42.2203152 38.3348042,42.3758652 38.5231059,42.5805429 C38.7359785,42.812509 39.1562395,43.0744953 39.7020443,43.3665018 C40.2478142,43.6584593 40.9300684,43.9941441 41.5577457,44.6109018 C42.1854229,45.2276525 42.6684586,46.2236894 42.6493553,47.3398908 C42.6384566,48.1040525 42.0162566,48.7153538 41.252095,48.7153538 L41.252095,48.7153538 L20.2275196,48.7153538 C19.4633929,48.7153538 18.8411755,48.1040525 18.8302594,47.3398908 C18.8083922,46.2237593 19.2941917,45.2303911 19.921869,44.6109018 C20.5495183,43.9914474 21.2290339,43.6585082 21.7775703,43.3665018 C22.3261068,43.0744953 22.7409184,42.812509 22.9565087,42.5805429 C23.1420788,42.3812866 23.2375983,42.2175486 23.2621594,41.8163812 C23.2457849,41.6717438 23.2539721,41.5243748 23.2839916,41.3797374 L23.2839916,41.3797374 L23.2839916,41.3579052 C23.2976365,41.2760327 23.3194687,41.1968919 23.3494881,41.1177511 L23.3494881,41.1177511 L23.3494881,41.0959189 C23.3685915,41.0604425 23.3904237,41.0222358 23.4149847,40.9867579 L23.4149847,40.9867579 L23.4149847,40.9649257 C23.434088,40.9294493 23.4559202,40.8912426 23.4804813,40.8557648 L23.4804813,40.8557648 L23.4804813,40.8339326 C23.5077712,40.8039139 23.5377906,40.7738944 23.56781,40.7466038 L23.5299899,40.7814644 L1.39727034,40.782374 C0.670385958,40.782374 0.0740340577,40.2288075 0.00639018148,39.5197808 L-3.7328487e-08,39.3851137 L-3.7328487e-08,1.61577127 C-0.00271458949,0.892577293 0.545849794,0.286736416 1.26627719,0.218510992 C1.30994157,0.215782142 1.35360596,0.215782142 1.39727034,0.218510992 Z M58.6849416,3.01303154 L2.79453062,3.01303154 L2.79453062,33.228785 L58.6849416,33.228785 L58.6849416,3.01303154 Z" transform="translate(4.26 10.534)"/>
</svg>
