<svg xmlns="http://www.w3.org/2000/svg" width="70" height="70" version="1.1" viewBox="0 0 70 70">
  <path fill="#000" fill-rule="nonzero" stroke="none" stroke-width="1" d="M1.33178471,64.6463055 C8.49265718,51.337142 16.5598314,41.2536784 39.7517975,42.2620248 C40.153563,42.2620248 40.7601438,42.8686056 40.7601438,43.2703711 L40.7601438,53.3538347 C40.7601438,54.0588906 41.7684902,55.3705274 42.7768366,54.362181 L69.6986759,31.5715367 C70.1004414,31.2682463 70.1004414,30.665598 69.6986759,30.3623278 L42.7768366,8.98639342 C42.2726634,8.5846279 40.7601438,8.98639342 40.7601438,9.99473977 L40.7601438,20.0782033 C40.7601438,20.4799688 40.153563,21.0865497 39.7517975,21.0865497 C-0.582056666,25.1199351 1.53748737,56.3786721 0.024967839,63.9412697 C-0.179847472,64.7487333 0.930906537,65.3513413 1.33269223,64.6463256 L1.33178471,64.6463055 Z"/>
</svg>
