<svg xmlns="http://www.w3.org/2000/svg" width="70" height="70" version="1.1" viewBox="0 0 70 70">
  <path fill="#000" fill-rule="nonzero" stroke="none" stroke-width="1" d="M3.86465525,41.4455898 L14.5053456,41.4455898 L10.9194043,55.7512993 C10.8256574,56.1274958 10.9819044,56.5244678 11.3074251,56.7372037 C11.6329459,56.9525432 12.0600268,56.9369749 12.3699608,56.7008818 L32.390672,41.4453992 L56.1353914,41.4453992 C57.1614604,41.4453992 58.1431959,41.040663 58.8671975,40.3168296 C59.5937324,39.5955997 60,38.6174662 60,37.5952313 L60,4.73905682 C60,3.71682193 59.5937458,2.73875481 58.8671975,2.01745853 C58.1432625,1.29622867 57.1614604,0.888888889 56.1353914,0.888888889 L3.86460859,0.888888889 C2.83853964,0.888888889 1.85680413,1.29621539 1.13280252,2.01745853 C0.406267569,2.73868839 0,3.71682193 0,4.73905682 L0,37.5952313 C0,38.6174662 0.406254236,39.5955333 1.13280252,40.3168296 C1.85673746,41.0406497 2.83853964,41.4453992 3.86460859,41.4453992 L3.86465525,41.4455898 Z" transform="matrix(-1 0 0 1 65 6.111)"/>
</svg>
