<svg xmlns="http://www.w3.org/2000/svg" width="70" height="70" viewBox="0 0 70 70">
  <path d="M56.85317,50 L45.3593467,41.0375707 L6.77495843,41.0375707 C3.36017444,41.0375707 0.62550318,38.2637025 0.62550318,34.8881155 L0.62550318,6.14945525 C0.62550318,2.73467126 3.39937139,0 6.77495843,0 L59.2250416,0 C62.6398256,0 65.3744968,2.77386821 65.3744968,6.14945525 L65.3744968,34.8452723 C65.3744968,38.2600563 62.6006286,40.9947276 59.2250416,40.9947276 L56.8927316,40.9947276 L56.85317,50 Z M6.77404688,3.21524415 C5.16815676,3.21524415 3.83992693,4.53982775 3.83992693,6.1493641 L3.83992693,34.8451811 C3.83992693,36.4510713 5.16451053,37.7793011 6.77404688,37.7793011 L47.128679,37.7793011 L53.5986378,42.6824755 L53.5986378,37.7793011 L59.18548,37.7793011 C60.7913701,37.7793011 62.1195999,36.4547175 62.1195999,34.8451811 L62.1160394,6.1493641 C62.1160394,4.54347398 60.7914558,3.21524415 59.1819194,3.21524415 L6.77404688,3.21524415 Z" transform="translate(2 10)"/>
</svg>
