<svg xmlns="http://www.w3.org/2000/svg" width="21" height="21" version="1.1" viewBox="0 0 21 21">
  <path fill="#000" fill-rule="nonzero" stroke="none" stroke-width="1" d="M19.0964792,6.80284675 L13.064441,5.9245369 L10.2804234,0.287118077 C10.1948799,0.11179652 10.0161586,1.77635684e-15 9.82051847,1.77635684e-15 C9.62486968,1.77635684e-15 9.4469961,0.111798688 9.36145911,0.287118077 L6.55966196,5.9245369 L0.519167687,6.79183211 C0.291329237,6.82486304 0.101608411,6.98409411 0.0296229096,7.20345041 C-0.041521316,7.42281105 0.0177654664,7.66335537 0.182923842,7.824282 L4.5625478,12.093109 L3.52415693,18.2125271 C3.48943043,18.420034 3.57582171,18.6292408 3.74605441,18.7528954 C3.91629579,18.8765522 4.14158439,18.8926448 4.32876837,18.7952433 L9.81202548,15.9071502 L15.3063406,18.7952433 C15.4918269,18.8867169 15.7137308,18.8672353 15.8805767,18.7444241 C16.0474227,18.6216129 16.1321357,18.4166516 16.0999374,18.2125336 L15.0615465,12.0931155 L19.4327143,7.83296146 C19.59618,7.672037 19.6546118,7.43233612 19.5834741,7.21382109 C19.5123299,6.99530607 19.323459,6.83607067 19.0964662,6.8030484 L19.0964792,6.80284675 Z" transform="translate(.693 .585)"/>
</svg>
