<svg xmlns="http://www.w3.org/2000/svg" width="21" height="21" version="1.1" viewBox="0 0 21 21">
  <path fill="#000" fill-rule="nonzero" stroke="none" stroke-width="1" d="M19.7898316,6.96059681 L13.7577934,6.08228696 L10.9737758,0.444868136 C10.8882323,0.269546579 10.709511,0.157750059 10.5138709,0.157750059 C10.3182221,0.157750059 10.1403485,0.269548747 10.0548115,0.444868136 L7.25301437,6.08228696 L1.2125201,6.94958216 C0.984681646,6.9826131 0.794960821,7.14184417 0.722975319,7.36120047 C0.651831093,7.58056111 0.711117876,7.82110543 0.876276251,7.98203206 L5.25590021,12.2508591 L4.21750934,18.3702772 C4.18278284,18.5777841 4.26917412,18.7869908 4.43940682,18.9106455 C4.60964819,19.0343022 4.8349368,19.0503949 5.02212078,18.9529933 L10.5053779,16.0649003 L15.999693,18.9529933 C16.1851793,19.0444669 16.4070832,19.0249853 16.5739292,18.9021742 C16.7407751,18.779363 16.8254881,18.5744016 16.7932898,18.3702837 L15.7548989,12.2508656 L20.1260668,7.99071151 C20.2895324,7.82978706 20.3479642,7.59008618 20.2768265,7.37157115 C20.2056823,7.15305612 20.0168114,6.99382072 19.7898186,6.96079846 L19.7898316,6.96059681 Z" transform="translate(0 .913)"/>
</svg>
