<svg xmlns="http://www.w3.org/2000/svg" width="70" height="70" viewBox="0 0 70 70">
  <path d="M5.10921881,49.2413453 C7.78991486,49.2444506 9.9581602,51.4157282 9.96119249,54.0933966 C9.96119249,56.0553795 8.78150302,57.8263577 6.96810696,58.5753782 C5.15471091,59.3273953 3.06836223,58.9119888 1.67945565,57.5230822 C0.290556833,56.1372032 -0.124857509,54.0509322 0.627159596,52.2374585 C1.3791767,50.4239848 3.14715828,49.2413453 5.10914117,49.2413453 Z M5.72772512,52.5982745 C5.12429486,52.3496051 4.42984933,52.4860659 3.96587644,52.9500388 C3.50493894,53.4109374 3.36544275,54.1084261 3.61713986,54.7118874 C3.86579381,55.3153876 4.45716012,55.7096085 5.10914117,55.7096085 C6.00371315,55.7096085 6.72544074,54.9848245 6.72847381,54.0933035 C6.72847381,53.4382482 6.33422183,52.8499716 5.72772512,52.5982745 Z M16.4324833,36.3017138 C20.0016728,36.3047414 22.8977141,39.2007098 22.9007464,42.7730045 C22.9007464,45.3900427 21.3238938,47.7462388 18.9069899,48.7500151 C16.4901635,49.7507638 13.7062951,49.1957756 11.8564899,47.3459703 C10.0066691,45.4961651 9.45472407,42.7123743 10.4554728,40.2954703 C11.4561438,37.8785664 13.8154451,36.3017138 16.4324833,36.3017138 Z M17.6697288,39.7829932 C16.459763,39.2826111 15.0678288,39.5585914 14.1429262,40.483494 C13.2180235,41.4083966 12.9420666,42.8003309 13.4424254,44.0102966 C13.9428385,45.2172348 15.1224504,46.0057077 16.4324833,46.0057077 C18.2155564,46.0057077 19.6650933,44.5561709 19.6650933,42.7730511 C19.6650933,41.4630182 18.876667,40.283352 17.6697288,39.7829932 Z M45.5443254,0.721217696 C49.659032,0.718192701 53.3253385,3.32312033 54.6838912,7.20772691 C59.5927688,6.91648273 63.9413017,10.3490406 64.8025464,15.1889038 C65.6637912,20.0321827 62.7616899,24.7507077 58.0522478,26.1698906 C56.8210109,30.2637143 53.0518425,33.0657431 48.7760504,33.0687761 C47.1021583,33.0657485 45.4585425,32.6230156 44.005978,31.7860696 C42.2407135,34.5971867 39.1566438,36.3014327 35.8391359,36.3014327 C32.5189109,36.3014327 29.4348412,34.5971867 27.6699649,31.7860696 C26.220428,32.6230001 24.5737846,33.0657431 22.8998925,33.0687761 C19.5857228,33.053638 16.5047583,31.3524196 14.7307214,28.553413 C13.2811846,29.3873159 11.6376464,29.8300596 9.96064907,29.8330919 C7.34058328,29.8330919 4.82974512,28.771713 3.00113328,26.8915538 C1.17259907,25.0083669 0.187022701,22.4702025 0.262834596,19.847109 C0.338680648,17.2270433 1.47280039,14.7464038 3.40450696,12.9754722 C5.33924117,11.2045173 7.9077596,10.2887054 10.5247978,10.443363 C12.1682583,5.75814194 17.0902556,3.07744589 21.9180083,4.23586431 C24.7927056,0.845537991 29.5873872,-0.188514641 33.6054425,1.71283799 C36.0253741,0.399747964 38.9456412,0.408830859 41.3564899,1.74316244 C42.651307,1.07905533 44.0857056,0.730317978 45.5443254,0.721217696 Z M40.3340276,4.92704387 C38.6388645,3.66859173 36.3220276,3.65640357 34.6117263,4.89975094 C34.0780092,5.29094112 33.3563072,5.31520099 32.7983303,4.96040139 C29.7751237,3.11967902 25.8359421,4.01733296 23.9102908,6.98914744 C23.4979118,7.63809775 22.6882067,7.90798704 21.9664737,7.63506546 C20.1712434,6.93452586 18.1546855,7.08008507 16.4776881,8.02928639 C14.8007684,8.97546007 13.6392991,10.6311864 13.3148224,12.5295114 C13.2359797,12.9661968 12.9873103,13.3482839 12.6173492,13.593918 C12.2503847,13.8334836 11.8015888,13.9183947 11.3709742,13.8274182 C9.16631499,13.3149722 6.85258341,13.9942485 5.27262552,15.6165932 C3.69266762,17.235988 3.07404486,19.567963 3.64414789,21.760434 C4.21124657,23.9498774 5.88513867,25.6844464 8.05338867,26.3333998 C10.2246663,26.9823222 12.5748071,26.4486051 14.2548321,24.9293551 C14.6520729,24.5715216 15.2039791,24.4350593 15.7255624,24.565457 C16.2441025,24.6958781 16.6656187,25.074922 16.8505992,25.5783163 C17.5692347,27.5979794 19.2492597,29.123308 21.3295531,29.6418636 C23.4068189,30.1604426 25.6083729,29.605532 27.1913584,28.1650781 C27.4885321,27.8982195 27.8736468,27.7526603 28.2709031,27.7526603 C28.4013009,27.749628 28.5347341,27.7678233 28.6620964,27.8011801 C29.1836642,27.9285735 29.6051804,28.3076174 29.7901609,28.8110116 C30.7059806,31.3643919 33.1259122,33.068638 35.8399899,33.068638 C38.5510399,33.068638 40.9709714,31.3643919 41.8898188,28.8110116 C42.0748149,28.3076019 42.4963,27.9285424 43.0148556,27.8011801 C43.5363846,27.6707823 44.0852942,27.8072431 44.4855859,28.1620427 C46.2171583,29.7358755 48.6613109,30.2422973 50.875053,29.4902414 C53.0857675,28.7381466 54.7142063,26.8398216 55.1266241,24.5412282 C55.2479622,23.8801255 55.763467,23.3646052 56.4245464,23.2433059 L56.4245464,23.2433059 C58.1256639,22.9248052 59.6328034,21.9392723 60.6001705,20.501846 C61.567533,19.0644197 61.9193018,17.2995434 61.5705653,15.6013526 C61.2248718,13.9031618 60.208985,12.4172158 58.7564205,11.4741473 C57.3008284,10.5310595 55.5298968,10.2156773 53.8377613,10.5917092 C53.4071389,10.6826856 52.9583197,10.6008076 52.5913863,10.3582089 C52.2214253,10.1156102 51.9727558,9.73047996 51.8939131,9.29380233 C51.5118105,7.20139839 50.1168487,5.43652207 48.1730316,4.57527733 C46.2261868,3.71407917 43.9820908,3.86872128 42.17475,4.99375812 C41.6076513,5.35765848 40.8738078,5.33036321 40.3340276,4.92704387 Z" transform="translate(2.395 5.167)"/>
</svg>
