<svg xmlns="http://www.w3.org/2000/svg" width="70" height="70" viewBox="0 0 70 70">
  <path d="M6 48.6677195C6 52.6663157 0 52.6663157 0 48.6677195 0 44.6663157 6 44.6663157 6 48.6677195M20 40.6666667C20 43.4291467 17.76248 45.6666667 15 45.6666667 12.24064 45.6666667 10 43.4291467 10 40.6666667 10 37.9041867 12.24064 35.6666667 15 35.6666667 17.76248 35.6666667 20 37.9041867 20 40.6666667M52.9999295 7.04739814C51.679974 3.22316092 48.1069245.663691004 44.1001893.666666667 42.6798443.672634945 41.2830848 1.01866892 40.019296 1.66896795 37.674657.362428657 34.8280706.350439256 32.4745871 1.64212009 28.5619671-.231204789 23.8930998.785985189 21.0938355 4.12400254 16.3957887 2.98447485 11.6029464 5.62145587 9.99958708 10.2302734 7.45122097 10.0781378 4.95010143 10.9790153 3.06613536 12.7210906 1.18511748 14.463143.0807574638 16.9033298.00395345431 19.4806693-.0698698641 22.0609871.892793556 24.5577608 2.67334635 26.4102379 4.45102656 28.2597367 6.89892757 29.3038073 9.45024187 29.3038073 11.0832342 29.3008237 12.6836453 28.8653007 14.0951458 28.0420183 15.8226312 30.7953805 18.82275 32.4718348 22.0499547 32.4837479 23.6799233 32.4837479 25.2833582 32.0482271 26.6948586 31.2219588 28.4134239 33.9872341 31.4165666 35.6666667 34.6496676 35.6666667 37.8801229 35.6666667 40.8862137 33.9872341 42.6022088 31.2219588 44.0166574 32.0482348 45.6171441 32.4837479 47.2471127 32.4837479 51.4107064 32.4837479 55.0809704 29.7274074 56.2798992 25.7003431 60.8657638 24.3072816 63.6917129 19.6627249 62.8530675 14.898427 62.0144222 10.1374892 57.7799964 6.76090719 52.9993248 7.04727825L52.9999295 7.04739814z" transform="translate(4 9.333)"/>
</svg>
