<svg xmlns="http://www.w3.org/2000/svg" width="21" height="21" viewBox="0 0 21 21">
  <path fill="#222" d="M15.8747204,20.6366363 L3.29245543,8.03532695 C3.09771299,7.83975442 3.09783262,7.52337811 3.2927229,7.32795291 L10.2700695,0.350606328 C10.4641769,0.156498893 10.7784792,0.155183469 10.9742045,0.347659369 L12.1537427,1.50761467 C12.3506325,1.70123557 12.3532823,2.01780697 12.1596614,2.21469668 C12.1586833,2.21569136 12.1577009,2.21668195 12.1567145,2.21766841 L7.0459576,7.32842529 C6.85088002,7.52350286 6.85066863,7.83972084 7.04548521,8.03505906 L17.7172227,18.7353709 C17.9084848,18.9271451 17.9122753,19.2363413 17.7257722,19.4327466 L16.5911163,20.6276457 C16.4009672,20.8278904 16.0844906,20.8360746 15.8842458,20.6459256 C15.8810296,20.6428716 15.8778542,20.6397749 15.8747204,20.6366363 Z" transform="rotate(-90 10.5 10.5)"/>
</svg>
