<svg xmlns="http://www.w3.org/2000/svg" width="70" height="70" viewBox="0 0 70 70">
  <path d="M13.8833333,0 C6.22071333,0 0,6.22071333 0,13.8833333 L0,35.1166667 C0,42.7792867 6.22071333,49 13.8833333,49 L53.0833333,49 C60.7459533,49 66.9666667,42.7792867 66.9666667,35.1166667 L66.9666667,13.8833333 C66.9666667,6.22071333 60.7459533,0 53.0833333,0 L13.8833333,0 Z M13.8833333,3.26666667 L53.0833333,3.26666667 C58.9946117,3.26666667 63.7,7.972055 63.7,13.8833333 L63.7,35.1166667 C63.7,41.027945 58.9946117,45.7333333 53.0833333,45.7333333 L13.8833333,45.7333333 C7.972055,45.7333333 3.26666667,41.027945 3.26666667,35.1166667 L3.26666667,13.8833333 C3.26666667,7.972055 7.972055,3.26666667 13.8833333,3.26666667 Z M27.6392667,13.0666667 C26.7874833,13.1336587 26.1303117,13.845048 26.1334848,14.7 L26.1334848,34.3 C26.1303068,35.1454133 26.7715175,35.853545 27.613705,35.9333333 C27.9390977,35.9684247 28.2676753,35.9078125 28.557935,35.7546875 L46.5246017,25.9546875 C47.057346,25.6707652 47.389125,25.1157258 47.389125,24.5127808 C47.389125,23.906659 47.0573542,23.3547475 46.5246017,23.0708742 L28.557935,13.2708742 C28.2772058,13.114556 27.9581913,13.0411867 27.639185,13.0667075 L27.6392667,13.0666667 Z M29.4001633,17.48173 L42.28798,24.5 L29.4001633,31.54375 L29.4001633,17.48173 Z" transform="translate(1.5 10.5)"/>
</svg>
